<?xml version="1.0" encoding="utf-8" standalone="no"?>
<!DOCTYPE svg PUBLIC "-//W3C//DTD SVG 1.1//EN"
  "http://www.w3.org/Graphics/SVG/1.1/DTD/svg11.dtd">
<svg xmlns:xlink="http://www.w3.org/1999/xlink" width="520.006562pt" height="716.722188pt" viewBox="0 0 520.006562 716.722188" xmlns="http://www.w3.org/2000/svg" version="1.1">
 <metadata>
  <rdf:RDF xmlns:dc="http://purl.org/dc/elements/1.1/" xmlns:cc="http://creativecommons.org/ns#" xmlns:rdf="http://www.w3.org/1999/02/22-rdf-syntax-ns#">
   <cc:Work>
    <dc:type rdf:resource="http://purl.org/dc/dcmitype/StillImage"/>
    <dc:date>2026-09-22T00:29:22.615369</dc:date>
    <dc:format>image/svg+xml</dc:format>
    <dc:creator>
     <cc:Agent>
      <dc:title>Matplotlib v3.10.9, https://matplotlib.org/</dc:title>
     </cc:Agent>
    </dc:creator>
   </cc:Work>
  </rdf:RDF>
 </metadata>
 <defs>
  <style type="text/css">*{stroke-linejoin: round; stroke-linecap: butt}</style>
 </defs>
 <g id="figure_1">
  <g id="patch_1">
   <path d="M 0 716.722188 
L 520.006562 716.722188 
L 520.006562 0 
L 0 0 
z
" style="fill: #ffffff"/>
  </g>
  <g id="axes_1">
   <g id="patch_2">
    <path d="M 52.366563 252.188438 
L 511.366562 252.188438 
L 511.366562 22.238438 
L 52.366563 22.238438 
z
" style="fill: #ffffff"/>
   </g>
   <g id="matplotlib.axis_1">
    <g id="xtick_1">
     <g id="line2d_1">
      <defs>
       <path id="me262e40a7a" d="M 0 0 
L 0 3 
" style="stroke: #000000; stroke-width: 0.6"/>
      </defs>
      <g>
       <use xlink:href="#me262e40a7a" x="59.064527" y="252.188438" style="stroke: #000000; stroke-width: 0.6"/>
      </g>
     </g>
     <g id="text_1">
      <text style="font-size: 8px; font-family: 'DejaVu Sans'; text-anchor: middle" x="59.064527" y="264.767188" transform="rotate(-0 59.064527 264.767188)">−0.3</text>
     </g>
    </g>
    <g id="xtick_2">
     <g id="line2d_2">
      <g>
       <use xlink:href="#me262e40a7a" x="111.937221" y="252.188438" style="stroke: #000000; stroke-width: 0.6"/>
      </g>
     </g>
     <g id="text_2">
      <text style="font-size: 8px; font-family: 'DejaVu Sans'; text-anchor: middle" x="111.937221" y="264.767188" transform="rotate(-0 111.937221 264.767188)">−0.2</text>
     </g>
    </g>
    <g id="xtick_3">
     <g id="line2d_3">
      <g>
       <use xlink:href="#me262e40a7a" x="164.809916" y="252.188438" style="stroke: #000000; stroke-width: 0.6"/>
      </g>
     </g>
     <g id="text_3">
      <text style="font-size: 8px; font-family: 'DejaVu Sans'; text-anchor: middle" x="164.809916" y="264.767188" transform="rotate(-0 164.809916 264.767188)">−0.1</text>
     </g>
    </g>
    <g id="xtick_4">
     <g id="line2d_4">
      <g>
       <use xlink:href="#me262e40a7a" x="217.68261" y="252.188438" style="stroke: #000000; stroke-width: 0.6"/>
      </g>
     </g>
     <g id="text_4">
      <text style="font-size: 8px; font-family: 'DejaVu Sans'; text-anchor: middle" x="217.68261" y="264.767188" transform="rotate(-0 217.68261 264.767188)">0.0</text>
     </g>
    </g>
    <g id="xtick_5">
     <g id="line2d_5">
      <g>
       <use xlink:href="#me262e40a7a" x="270.555305" y="252.188438" style="stroke: #000000; stroke-width: 0.6"/>
      </g>
     </g>
     <g id="text_5">
      <text style="font-size: 8px; font-family: 'DejaVu Sans'; text-anchor: middle" x="270.555305" y="264.767188" transform="rotate(-0 270.555305 264.767188)">0.1</text>
     </g>
    </g>
    <g id="xtick_6">
     <g id="line2d_6">
      <g>
       <use xlink:href="#me262e40a7a" x="323.427999" y="252.188438" style="stroke: #000000; stroke-width: 0.6"/>
      </g>
     </g>
     <g id="text_6">
      <text style="font-size: 8px; font-family: 'DejaVu Sans'; text-anchor: middle" x="323.427999" y="264.767188" transform="rotate(-0 323.427999 264.767188)">0.2</text>
     </g>
    </g>
    <g id="xtick_7">
     <g id="line2d_7">
      <g>
       <use xlink:href="#me262e40a7a" x="376.300694" y="252.188438" style="stroke: #000000; stroke-width: 0.6"/>
      </g>
     </g>
     <g id="text_7">
      <text style="font-size: 8px; font-family: 'DejaVu Sans'; text-anchor: middle" x="376.300694" y="264.767188" transform="rotate(-0 376.300694 264.767188)">0.3</text>
     </g>
    </g>
    <g id="xtick_8">
     <g id="line2d_8">
      <g>
       <use xlink:href="#me262e40a7a" x="429.173388" y="252.188438" style="stroke: #000000; stroke-width: 0.6"/>
      </g>
     </g>
     <g id="text_8">
      <text style="font-size: 8px; font-family: 'DejaVu Sans'; text-anchor: middle" x="429.173388" y="264.767188" transform="rotate(-0 429.173388 264.767188)">0.4</text>
     </g>
    </g>
    <g id="xtick_9">
     <g id="line2d_9">
      <g>
       <use xlink:href="#me262e40a7a" x="482.046083" y="252.188438" style="stroke: #000000; stroke-width: 0.6"/>
      </g>
     </g>
     <g id="text_9">
      <text style="font-size: 8px; font-family: 'DejaVu Sans'; text-anchor: middle" x="482.046083" y="264.767188" transform="rotate(-0 482.046083 264.767188)">0.5</text>
     </g>
    </g>
    <g id="text_10">
     <text style="font-size: 9px; font-family: 'DejaVu Sans'; text-anchor: middle; fill: #202c37" x="281.866562" y="277.269531" transform="rotate(-0 281.866562 277.269531)">Change in recommendation retest score</text>
    </g>
   </g>
   <g id="matplotlib.axis_2">
    <g id="ytick_1">
     <g id="line2d_10">
      <path d="M 52.366563 228.389669 
L 511.366562 228.389669 
" clip-path="url(#p59101dde82)" style="fill: none; stroke: #e7e9eb; stroke-width: 0.5; stroke-linecap: square"/>
     </g>
     <g id="line2d_11">
      <defs>
       <path id="m60f445d0e3" d="M 0 0 
L -3 0 
" style="stroke: #000000; stroke-width: 0.6"/>
      </defs>
      <g>
       <use xlink:href="#m60f445d0e3" x="52.366563" y="228.389669" style="stroke: #000000; stroke-width: 0.6"/>
      </g>
     </g>
     <g id="text_11">
      <text style="font-size: 8px; font-family: 'DejaVu Sans'; text-anchor: end" x="45.866563" y="231.429044" transform="rotate(-0 45.866563 231.429044)">−0.20</text>
     </g>
    </g>
    <g id="ytick_2">
     <g id="line2d_12">
      <path d="M 52.366563 202.686014 
L 511.366562 202.686014 
" clip-path="url(#p59101dde82)" style="fill: none; stroke: #e7e9eb; stroke-width: 0.5; stroke-linecap: square"/>
     </g>
     <g id="line2d_13">
      <g>
       <use xlink:href="#m60f445d0e3" x="52.366563" y="202.686014" style="stroke: #000000; stroke-width: 0.6"/>
      </g>
     </g>
     <g id="text_12">
      <text style="font-size: 8px; font-family: 'DejaVu Sans'; text-anchor: end" x="45.866563" y="205.725389" transform="rotate(-0 45.866563 205.725389)">−0.15</text>
     </g>
    </g>
    <g id="ytick_3">
     <g id="line2d_14">
      <path d="M 52.366563 176.98236 
L 511.366562 176.98236 
" clip-path="url(#p59101dde82)" style="fill: none; stroke: #e7e9eb; stroke-width: 0.5; stroke-linecap: square"/>
     </g>
     <g id="line2d_15">
      <g>
       <use xlink:href="#m60f445d0e3" x="52.366563" y="176.98236" style="stroke: #000000; stroke-width: 0.6"/>
      </g>
     </g>
     <g id="text_13">
      <text style="font-size: 8px; font-family: 'DejaVu Sans'; text-anchor: end" x="45.866563" y="180.021735" transform="rotate(-0 45.866563 180.021735)">−0.10</text>
     </g>
    </g>
    <g id="ytick_4">
     <g id="line2d_16">
      <path d="M 52.366563 151.278705 
L 511.366562 151.278705 
" clip-path="url(#p59101dde82)" style="fill: none; stroke: #e7e9eb; stroke-width: 0.5; stroke-linecap: square"/>
     </g>
     <g id="line2d_17">
      <g>
       <use xlink:href="#m60f445d0e3" x="52.366563" y="151.278705" style="stroke: #000000; stroke-width: 0.6"/>
      </g>
     </g>
     <g id="text_14">
      <text style="font-size: 8px; font-family: 'DejaVu Sans'; text-anchor: end" x="45.866563" y="154.31808" transform="rotate(-0 45.866563 154.31808)">−0.05</text>
     </g>
    </g>
    <g id="ytick_5">
     <g id="line2d_18">
      <path d="M 52.366563 125.57505 
L 511.366562 125.57505 
" clip-path="url(#p59101dde82)" style="fill: none; stroke: #e7e9eb; stroke-width: 0.5; stroke-linecap: square"/>
     </g>
     <g id="line2d_19">
      <g>
       <use xlink:href="#m60f445d0e3" x="52.366563" y="125.57505" style="stroke: #000000; stroke-width: 0.6"/>
      </g>
     </g>
     <g id="text_15">
      <text style="font-size: 8px; font-family: 'DejaVu Sans'; text-anchor: end" x="45.866563" y="128.614425" transform="rotate(-0 45.866563 128.614425)">0.00</text>
     </g>
    </g>
    <g id="ytick_6">
     <g id="line2d_20">
      <path d="M 52.366563 99.871396 
L 511.366562 99.871396 
" clip-path="url(#p59101dde82)" style="fill: none; stroke: #e7e9eb; stroke-width: 0.5; stroke-linecap: square"/>
     </g>
     <g id="line2d_21">
      <g>
       <use xlink:href="#m60f445d0e3" x="52.366563" y="99.871396" style="stroke: #000000; stroke-width: 0.6"/>
      </g>
     </g>
     <g id="text_16">
      <text style="font-size: 8px; font-family: 'DejaVu Sans'; text-anchor: end" x="45.866563" y="102.910771" transform="rotate(-0 45.866563 102.910771)">0.05</text>
     </g>
    </g>
    <g id="ytick_7">
     <g id="line2d_22">
      <path d="M 52.366563 74.167741 
L 511.366562 74.167741 
" clip-path="url(#p59101dde82)" style="fill: none; stroke: #e7e9eb; stroke-width: 0.5; stroke-linecap: square"/>
     </g>
     <g id="line2d_23">
      <g>
       <use xlink:href="#m60f445d0e3" x="52.366563" y="74.167741" style="stroke: #000000; stroke-width: 0.6"/>
      </g>
     </g>
     <g id="text_17">
      <text style="font-size: 8px; font-family: 'DejaVu Sans'; text-anchor: end" x="45.866563" y="77.207116" transform="rotate(-0 45.866563 77.207116)">0.10</text>
     </g>
    </g>
    <g id="ytick_8">
     <g id="line2d_24">
      <path d="M 52.366563 48.464086 
L 511.366562 48.464086 
" clip-path="url(#p59101dde82)" style="fill: none; stroke: #e7e9eb; stroke-width: 0.5; stroke-linecap: square"/>
     </g>
     <g id="line2d_25">
      <g>
       <use xlink:href="#m60f445d0e3" x="52.366563" y="48.464086" style="stroke: #000000; stroke-width: 0.6"/>
      </g>
     </g>
     <g id="text_18">
      <text style="font-size: 8px; font-family: 'DejaVu Sans'; text-anchor: end" x="45.866563" y="51.503461" transform="rotate(-0 45.866563 51.503461)">0.15</text>
     </g>
    </g>
    <g id="ytick_9">
     <g id="line2d_26">
      <path d="M 52.366563 22.760432 
L 511.366562 22.760432 
" clip-path="url(#p59101dde82)" style="fill: none; stroke: #e7e9eb; stroke-width: 0.5; stroke-linecap: square"/>
     </g>
     <g id="line2d_27">
      <g>
       <use xlink:href="#m60f445d0e3" x="52.366563" y="22.760432" style="stroke: #000000; stroke-width: 0.6"/>
      </g>
     </g>
     <g id="text_19">
      <text style="font-size: 8px; font-family: 'DejaVu Sans'; text-anchor: end" x="45.866563" y="25.799807" transform="rotate(-0 45.866563 25.799807)">0.20</text>
     </g>
    </g>
    <g id="text_20">
     <text style="font-size: 9px; font-family: 'DejaVu Sans'; text-anchor: middle; fill: #202c37" x="15.478594" y="137.213438" transform="rotate(-90 15.478594 137.213438)">Change in score-prediction MAE</text>
    </g>
   </g>
   <g id="line2d_28">
    <path d="M 52.366563 125.57505 
L 511.366562 125.57505 
" clip-path="url(#p59101dde82)" style="fill: none; stroke: #a0a8ae; stroke-width: 0.7; stroke-linecap: square"/>
   </g>
   <g id="line2d_29">
    <path d="M 217.68261 252.188438 
L 217.68261 22.238438 
" clip-path="url(#p59101dde82)" style="fill: none; stroke: #a0a8ae; stroke-width: 0.7; stroke-linecap: square"/>
   </g>
   <g id="patch_3">
    <path d="M 52.366563 252.188438 
L 52.366563 22.238438 
" style="fill: none; stroke: #202c37; stroke-width: 0.7; stroke-linejoin: miter; stroke-linecap: square"/>
   </g>
   <g id="patch_4">
    <path d="M 52.366563 252.188438 
L 511.366563 252.188438 
" style="fill: none; stroke: #202c37; stroke-width: 0.7; stroke-linejoin: miter; stroke-linecap: square"/>
   </g>
   <g id="PathCollection_1">
    <defs>
     <path id="meb954cb457" d="M 0 2.915476 
C 0.773193 2.915476 1.514823 2.608283 2.061553 2.061553 
C 2.608283 1.514823 2.915476 0.773193 2.915476 0 
C 2.915476 -0.773193 2.608283 -1.514823 2.061553 -2.061553 
C 1.514823 -2.608283 0.773193 -2.915476 0 -2.915476 
C -0.773193 -2.915476 -1.514823 -2.608283 -2.061553 -2.061553 
C -2.608283 -1.514823 -2.915476 -0.773193 -2.915476 0 
C -2.915476 0.773193 -2.608283 1.514823 -2.061553 2.061553 
C -1.514823 2.608283 -0.773193 2.915476 0 2.915476 
z
" style="stroke: #3d5268; stroke-width: 0.9"/>
    </defs>
    <g clip-path="url(#p59101dde82)">
     <use xlink:href="#meb954cb457" x="238.057355" y="53.08892" style="fill: #ffffff; stroke: #3d5268; stroke-width: 0.9"/>
    </g>
   </g>
   <g id="PathCollection_2">
    <defs>
     <path id="me5617a30c4" d="M 0 2.915476 
C 0.773193 2.915476 1.514823 2.608283 2.061553 2.061553 
C 2.608283 1.514823 2.915476 0.773193 2.915476 0 
C 2.915476 -0.773193 2.608283 -1.514823 2.061553 -2.061553 
C 1.514823 -2.608283 0.773193 -2.915476 0 -2.915476 
C -0.773193 -2.915476 -1.514823 -2.608283 -2.061553 -2.061553 
C -2.608283 -1.514823 -2.915476 -0.773193 -2.915476 0 
C -2.915476 0.773193 -2.608283 1.514823 -2.061553 2.061553 
C -1.514823 2.608283 -0.773193 2.915476 0 2.915476 
z
" style="stroke: #397a75; stroke-width: 0.9"/>
    </defs>
    <g clip-path="url(#p59101dde82)">
     <use xlink:href="#me5617a30c4" x="405.667815" y="230.831099" style="fill: #ffffff; stroke: #397a75; stroke-width: 0.9"/>
    </g>
   </g>
   <g id="PathCollection_3">
    <defs>
     <path id="m93da384d96" d="M 0 2.915476 
C 0.773193 2.915476 1.514823 2.608283 2.061553 2.061553 
C 2.608283 1.514823 2.915476 0.773193 2.915476 0 
C 2.915476 -0.773193 2.608283 -1.514823 2.061553 -2.061553 
C 1.514823 -2.608283 0.773193 -2.915476 0 -2.915476 
C -0.773193 -2.915476 -1.514823 -2.608283 -2.061553 -2.061553 
C -2.608283 -1.514823 -2.915476 -0.773193 -2.915476 0 
C -2.915476 0.773193 -2.608283 1.514823 -2.061553 2.061553 
C -1.514823 2.608283 -0.773193 2.915476 0 2.915476 
z
" style="stroke: #956448; stroke-width: 0.9"/>
    </defs>
    <g clip-path="url(#p59101dde82)">
     <use xlink:href="#m93da384d96" x="377.47985" y="166.976589" style="fill: #ffffff; stroke: #956448; stroke-width: 0.9"/>
    </g>
   </g>
   <g id="PathCollection_4">
    <defs>
     <path id="mec32db3c9d" d="M 0 2.915476 
C 0.773193 2.915476 1.514823 2.608283 2.061553 2.061553 
C 2.608283 1.514823 2.915476 0.773193 2.915476 0 
C 2.915476 -0.773193 2.608283 -1.514823 2.061553 -2.061553 
C 1.514823 -2.608283 0.773193 -2.915476 0 -2.915476 
C -0.773193 -2.915476 -1.514823 -2.608283 -2.061553 -2.061553 
C -2.608283 -1.514823 -2.915476 -0.773193 -2.915476 0 
C -2.915476 0.773193 -2.608283 1.514823 -2.061553 2.061553 
C -1.514823 2.608283 -0.773193 2.915476 0 2.915476 
z
" style="stroke: #3d5268; stroke-width: 0.9"/>
    </defs>
    <g clip-path="url(#p59101dde82)">
     <use xlink:href="#mec32db3c9d" x="347.325248" y="98.546329" style="fill: #3d5268; stroke: #3d5268; stroke-width: 0.9"/>
    </g>
   </g>
   <g id="PathCollection_5">
    <defs>
     <path id="m41885bbdbf" d="M 0 2.915476 
C 0.773193 2.915476 1.514823 2.608283 2.061553 2.061553 
C 2.608283 1.514823 2.915476 0.773193 2.915476 0 
C 2.915476 -0.773193 2.608283 -1.514823 2.061553 -2.061553 
C 1.514823 -2.608283 0.773193 -2.915476 0 -2.915476 
C -0.773193 -2.915476 -1.514823 -2.608283 -2.061553 -2.061553 
C -2.608283 -1.514823 -2.915476 -0.773193 -2.915476 0 
C -2.915476 0.773193 -2.608283 1.514823 -2.061553 2.061553 
C -1.514823 2.608283 -0.773193 2.915476 0 2.915476 
z
" style="stroke: #397a75; stroke-width: 0.9"/>
    </defs>
    <g clip-path="url(#p59101dde82)">
     <use xlink:href="#m41885bbdbf" x="371.437385" y="152.969906" style="fill: #397a75; stroke: #397a75; stroke-width: 0.9"/>
    </g>
   </g>
   <g id="PathCollection_6">
    <defs>
     <path id="m9f05b1f673" d="M 0 2.915476 
C 0.773193 2.915476 1.514823 2.608283 2.061553 2.061553 
C 2.608283 1.514823 2.915476 0.773193 2.915476 0 
C 2.915476 -0.773193 2.608283 -1.514823 2.061553 -2.061553 
C 1.514823 -2.608283 0.773193 -2.915476 0 -2.915476 
C -0.773193 -2.915476 -1.514823 -2.608283 -2.061553 -2.061553 
C -2.608283 -1.514823 -2.915476 -0.773193 -2.915476 0 
C -2.915476 0.773193 -2.608283 1.514823 -2.061553 2.061553 
C -1.514823 2.608283 -0.773193 2.915476 0 2.915476 
z
" style="stroke: #956448; stroke-width: 0.9"/>
    </defs>
    <g clip-path="url(#p59101dde82)">
     <use xlink:href="#m9f05b1f673" x="224.689499" y="45.778176" style="fill: #956448; stroke: #956448; stroke-width: 0.9"/>
    </g>
   </g>
   <g id="PathCollection_7">
    <defs>
     <path id="m0393cd2385" d="M -2.915476 2.915476 
L 2.915476 2.915476 
L 2.915476 -2.915476 
L -2.915476 -2.915476 
z
" style="stroke: #397a75; stroke-width: 0.9"/>
    </defs>
    <g clip-path="url(#p59101dde82)">
     <use xlink:href="#m0393cd2385" x="284.949035" y="124.364472" style="fill: #ffffff; stroke: #397a75; stroke-width: 0.9"/>
    </g>
   </g>
   <g id="PathCollection_8">
    <defs>
     <path id="mf957d34b0b" d="M -2.915476 2.915476 
L 2.915476 2.915476 
L 2.915476 -2.915476 
L -2.915476 -2.915476 
z
" style="stroke: #956448; stroke-width: 0.9"/>
    </defs>
    <g clip-path="url(#p59101dde82)">
     <use xlink:href="#mf957d34b0b" x="240.74621" y="118.850934" style="fill: #ffffff; stroke: #956448; stroke-width: 0.9"/>
    </g>
   </g>
   <g id="PathCollection_9">
    <defs>
     <path id="mbdd7684b87" d="M -2.915476 2.915476 
L 2.915476 2.915476 
L 2.915476 -2.915476 
L -2.915476 -2.915476 
z
" style="stroke: #3d5268; stroke-width: 0.9"/>
    </defs>
    <g clip-path="url(#p59101dde82)">
     <use xlink:href="#mbdd7684b87" x="354.669595" y="241.736165" style="fill: #ffffff; stroke: #3d5268; stroke-width: 0.9"/>
    </g>
   </g>
   <g id="PathCollection_10">
    <defs>
     <path id="ma47a19f747" d="M -2.915476 2.915476 
L 2.915476 2.915476 
L 2.915476 -2.915476 
L -2.915476 -2.915476 
z
" style="stroke: #397a75; stroke-width: 0.9"/>
    </defs>
    <g clip-path="url(#p59101dde82)">
     <use xlink:href="#ma47a19f747" x="328.951522" y="131.282371" style="fill: #397a75; stroke: #397a75; stroke-width: 0.9"/>
    </g>
   </g>
   <g id="PathCollection_11">
    <defs>
     <path id="m667628589b" d="M -2.915476 2.915476 
L 2.915476 2.915476 
L 2.915476 -2.915476 
L -2.915476 -2.915476 
z
" style="stroke: #956448; stroke-width: 0.9"/>
    </defs>
    <g clip-path="url(#p59101dde82)">
     <use xlink:href="#m667628589b" x="340.271182" y="129.925991" style="fill: #956448; stroke: #956448; stroke-width: 0.9"/>
    </g>
   </g>
   <g id="PathCollection_12">
    <defs>
     <path id="m9d6a288a9a" d="M -2.915476 2.915476 
L 2.915476 2.915476 
L 2.915476 -2.915476 
L -2.915476 -2.915476 
z
" style="stroke: #3d5268; stroke-width: 0.9"/>
    </defs>
    <g clip-path="url(#p59101dde82)">
     <use xlink:href="#m9d6a288a9a" x="347.201932" y="168.294063" style="fill: #3d5268; stroke: #3d5268; stroke-width: 0.9"/>
    </g>
   </g>
   <g id="PathCollection_13">
    <defs>
     <path id="ma0af734a4f" d="M 0 -2.915476 
L -2.915476 2.915476 
L 2.915476 2.915476 
z
" style="stroke: #956448; stroke-width: 0.9"/>
    </defs>
    <g clip-path="url(#p59101dde82)">
     <use xlink:href="#ma0af734a4f" x="113.317377" y="93.299306" style="fill: #ffffff; stroke: #956448; stroke-width: 0.9"/>
    </g>
   </g>
   <g id="PathCollection_14">
    <defs>
     <path id="m6dbf04ee3b" d="M 0 -2.915476 
L -2.915476 2.915476 
L 2.915476 2.915476 
z
" style="stroke: #3d5268; stroke-width: 0.9"/>
    </defs>
    <g clip-path="url(#p59101dde82)">
     <use xlink:href="#m6dbf04ee3b" x="251.146558" y="32.69071" style="fill: #ffffff; stroke: #3d5268; stroke-width: 0.9"/>
    </g>
   </g>
   <g id="PathCollection_15">
    <defs>
     <path id="m18eb1c97c6" d="M 0 -2.915476 
L -2.915476 2.915476 
L 2.915476 2.915476 
z
" style="stroke: #397a75; stroke-width: 0.9"/>
    </defs>
    <g clip-path="url(#p59101dde82)">
     <use xlink:href="#m18eb1c97c6" x="347.483105" y="125.253784" style="fill: #ffffff; stroke: #397a75; stroke-width: 0.9"/>
    </g>
   </g>
   <g id="PathCollection_16">
    <defs>
     <path id="mac5f131952" d="M 0 -2.915476 
L -2.915476 2.915476 
L 2.915476 2.915476 
z
" style="stroke: #956448; stroke-width: 0.9"/>
    </defs>
    <g clip-path="url(#p59101dde82)">
     <use xlink:href="#mac5f131952" x="380.610886" y="116.986685" style="fill: #956448; stroke: #956448; stroke-width: 0.9"/>
    </g>
   </g>
   <g id="PathCollection_17">
    <defs>
     <path id="m32e110ee66" d="M 0 -2.915476 
L -2.915476 2.915476 
L 2.915476 2.915476 
z
" style="stroke: #3d5268; stroke-width: 0.9"/>
    </defs>
    <g clip-path="url(#p59101dde82)">
     <use xlink:href="#m32e110ee66" x="375.155523" y="171.030437" style="fill: #3d5268; stroke: #3d5268; stroke-width: 0.9"/>
    </g>
   </g>
   <g id="PathCollection_18">
    <defs>
     <path id="me1c4ebbb38" d="M 0 -2.915476 
L -2.915476 2.915476 
L 2.915476 2.915476 
z
" style="stroke: #397a75; stroke-width: 0.9"/>
    </defs>
    <g clip-path="url(#p59101dde82)">
     <use xlink:href="#me1c4ebbb38" x="267.169674" y="133.065089" style="fill: #397a75; stroke: #397a75; stroke-width: 0.9"/>
    </g>
   </g>
   <g id="PathCollection_19">
    <defs>
     <path id="md19b0b9f97" d="M 0 4.123106 
L 4.123106 0 
L 0 -4.123106 
L -4.123106 0 
z
" style="stroke: #3d5268; stroke-width: 0.9"/>
    </defs>
    <g clip-path="url(#p59101dde82)">
     <use xlink:href="#md19b0b9f97" x="284.19694" y="179.407163" style="fill: #ffffff; stroke: #3d5268; stroke-width: 0.9"/>
    </g>
   </g>
   <g id="PathCollection_20">
    <defs>
     <path id="md87ec917f6" d="M 0 4.123106 
L 4.123106 0 
L 0 -4.123106 
L -4.123106 0 
z
" style="stroke: #397a75; stroke-width: 0.9"/>
    </defs>
    <g clip-path="url(#p59101dde82)">
     <use xlink:href="#md87ec917f6" x="458.042639" y="167.680534" style="fill: #ffffff; stroke: #397a75; stroke-width: 0.9"/>
    </g>
   </g>
   <g id="PathCollection_21">
    <defs>
     <path id="ma2775b3d8a" d="M 0 4.123106 
L 4.123106 0 
L 0 -4.123106 
L -4.123106 0 
z
" style="stroke: #956448; stroke-width: 0.9"/>
    </defs>
    <g clip-path="url(#p59101dde82)">
     <use xlink:href="#ma2775b3d8a" x="73.230199" y="75.765178" style="fill: #ffffff; stroke: #956448; stroke-width: 0.9"/>
    </g>
   </g>
   <g id="PathCollection_22">
    <defs>
     <path id="m0a99279a94" d="M 0 4.123106 
L 4.123106 0 
L 0 -4.123106 
L -4.123106 0 
z
" style="stroke: #3d5268; stroke-width: 0.9"/>
    </defs>
    <g clip-path="url(#p59101dde82)">
     <use xlink:href="#m0a99279a94" x="291.821704" y="159.084163" style="fill: #3d5268; stroke: #3d5268; stroke-width: 0.9"/>
    </g>
   </g>
   <g id="PathCollection_23">
    <defs>
     <path id="m75bdf431b1" d="M 0 4.123106 
L 4.123106 0 
L 0 -4.123106 
L -4.123106 0 
z
" style="stroke: #397a75; stroke-width: 0.9"/>
    </defs>
    <g clip-path="url(#p59101dde82)">
     <use xlink:href="#m75bdf431b1" x="359.897297" y="103.360506" style="fill: #397a75; stroke: #397a75; stroke-width: 0.9"/>
    </g>
   </g>
   <g id="PathCollection_24">
    <defs>
     <path id="mdd151d7f14" d="M 0 4.123106 
L 4.123106 0 
L 0 -4.123106 
L -4.123106 0 
z
" style="stroke: #956448; stroke-width: 0.9"/>
    </defs>
    <g clip-path="url(#p59101dde82)">
     <use xlink:href="#mdd151d7f14" x="86.517787" y="66.673056" style="fill: #956448; stroke: #956448; stroke-width: 0.9"/>
    </g>
   </g>
   <g id="PathCollection_25">
    <defs>
     <path id="mbcdbe39a6f" d="M -0 2.915476 
L 2.915476 -2.915476 
L -2.915476 -2.915476 
z
" style="stroke: #397a75; stroke-width: 0.9"/>
    </defs>
    <g clip-path="url(#p59101dde82)">
     <use xlink:href="#mbcdbe39a6f" x="337.944555" y="76.948897" style="fill: #ffffff; stroke: #397a75; stroke-width: 0.9"/>
    </g>
   </g>
   <g id="PathCollection_26">
    <defs>
     <path id="mf7682c3039" d="M -0 2.915476 
L 2.915476 -2.915476 
L -2.915476 -2.915476 
z
" style="stroke: #956448; stroke-width: 0.9"/>
    </defs>
    <g clip-path="url(#p59101dde82)">
     <use xlink:href="#mf7682c3039" x="284.971222" y="40.786523" style="fill: #ffffff; stroke: #956448; stroke-width: 0.9"/>
    </g>
   </g>
   <g id="PathCollection_27">
    <defs>
     <path id="m72d37c0745" d="M -0 2.915476 
L 2.915476 -2.915476 
L -2.915476 -2.915476 
z
" style="stroke: #3d5268; stroke-width: 0.9"/>
    </defs>
    <g clip-path="url(#p59101dde82)">
     <use xlink:href="#m72d37c0745" x="225.777792" y="122.499521" style="fill: #ffffff; stroke: #3d5268; stroke-width: 0.9"/>
    </g>
   </g>
   <g id="PathCollection_28">
    <defs>
     <path id="m42e8a02737" d="M -0 2.915476 
L 2.915476 -2.915476 
L -2.915476 -2.915476 
z
" style="stroke: #397a75; stroke-width: 0.9"/>
    </defs>
    <g clip-path="url(#p59101dde82)">
     <use xlink:href="#m42e8a02737" x="448.028313" y="224.401917" style="fill: #397a75; stroke: #397a75; stroke-width: 0.9"/>
    </g>
   </g>
   <g id="PathCollection_29">
    <defs>
     <path id="m136fb58b16" d="M -0 2.915476 
L 2.915476 -2.915476 
L -2.915476 -2.915476 
z
" style="stroke: #956448; stroke-width: 0.9"/>
    </defs>
    <g clip-path="url(#p59101dde82)">
     <use xlink:href="#m136fb58b16" x="183.045879" y="159.734895" style="fill: #956448; stroke: #956448; stroke-width: 0.9"/>
    </g>
   </g>
   <g id="PathCollection_30">
    <defs>
     <path id="mb640c8a4a7" d="M -0 2.915476 
L 2.915476 -2.915476 
L -2.915476 -2.915476 
z
" style="stroke: #3d5268; stroke-width: 0.9"/>
    </defs>
    <g clip-path="url(#p59101dde82)">
     <use xlink:href="#mb640c8a4a7" x="490.502926" y="53.656951" style="fill: #3d5268; stroke: #3d5268; stroke-width: 0.9"/>
    </g>
   </g>
   <g id="text_21">
    <text style="font-size: 7.3px; font-family: 'DejaVu Sans'; text-anchor: start; fill: #202c37" x="61.546563" y="32.384297" transform="rotate(-0 61.546563 32.384297)">Open: 12 batches; filled: 24 batches</text>
   </g>
   <g id="text_22">
    <text style="font-size: 10px; font-family: 'DejaVu Sans'; text-anchor: start; fill: #202c37" x="52.366563" y="16.238438" transform="rotate(-0 52.366563 16.238438)">a  EC: optimization minus discovery</text>
   </g>
  </g>
  <g id="axes_2">
   <g id="patch_5">
    <path d="M 52.366563 574.118438 
L 511.366562 574.118438 
L 511.366562 344.168438 
L 52.366563 344.168438 
z
" style="fill: #ffffff"/>
   </g>
   <g id="matplotlib.axis_3">
    <g id="xtick_10">
     <g id="line2d_30">
      <g>
       <use xlink:href="#me262e40a7a" x="52.868169" y="574.118438" style="stroke: #000000; stroke-width: 0.6"/>
      </g>
     </g>
     <g id="text_23">
      <text style="font-size: 8px; font-family: 'DejaVu Sans'; text-anchor: middle" x="52.868169" y="586.697188" transform="rotate(-0 52.868169 586.697188)">−0.06</text>
     </g>
    </g>
    <g id="xtick_11">
     <g id="line2d_31">
      <g>
       <use xlink:href="#me262e40a7a" x="125.301327" y="574.118438" style="stroke: #000000; stroke-width: 0.6"/>
      </g>
     </g>
     <g id="text_24">
      <text style="font-size: 8px; font-family: 'DejaVu Sans'; text-anchor: middle" x="125.301327" y="586.697188" transform="rotate(-0 125.301327 586.697188)">−0.04</text>
     </g>
    </g>
    <g id="xtick_12">
     <g id="line2d_32">
      <g>
       <use xlink:href="#me262e40a7a" x="197.734485" y="574.118438" style="stroke: #000000; stroke-width: 0.6"/>
      </g>
     </g>
     <g id="text_25">
      <text style="font-size: 8px; font-family: 'DejaVu Sans'; text-anchor: middle" x="197.734485" y="586.697188" transform="rotate(-0 197.734485 586.697188)">−0.02</text>
     </g>
    </g>
    <g id="xtick_13">
     <g id="line2d_33">
      <g>
       <use xlink:href="#me262e40a7a" x="270.167643" y="574.118438" style="stroke: #000000; stroke-width: 0.6"/>
      </g>
     </g>
     <g id="text_26">
      <text style="font-size: 8px; font-family: 'DejaVu Sans'; text-anchor: middle" x="270.167643" y="586.697188" transform="rotate(-0 270.167643 586.697188)">0.00</text>
     </g>
    </g>
    <g id="xtick_14">
     <g id="line2d_34">
      <g>
       <use xlink:href="#me262e40a7a" x="342.600801" y="574.118438" style="stroke: #000000; stroke-width: 0.6"/>
      </g>
     </g>
     <g id="text_27">
      <text style="font-size: 8px; font-family: 'DejaVu Sans'; text-anchor: middle" x="342.600801" y="586.697188" transform="rotate(-0 342.600801 586.697188)">0.02</text>
     </g>
    </g>
    <g id="xtick_15">
     <g id="line2d_35">
      <g>
       <use xlink:href="#me262e40a7a" x="415.033959" y="574.118438" style="stroke: #000000; stroke-width: 0.6"/>
      </g>
     </g>
     <g id="text_28">
      <text style="font-size: 8px; font-family: 'DejaVu Sans'; text-anchor: middle" x="415.033959" y="586.697188" transform="rotate(-0 415.033959 586.697188)">0.04</text>
     </g>
    </g>
    <g id="xtick_16">
     <g id="line2d_36">
      <g>
       <use xlink:href="#me262e40a7a" x="487.467117" y="574.118438" style="stroke: #000000; stroke-width: 0.6"/>
      </g>
     </g>
     <g id="text_29">
      <text style="font-size: 8px; font-family: 'DejaVu Sans'; text-anchor: middle" x="487.467117" y="586.697188" transform="rotate(-0 487.467117 586.697188)">0.06</text>
     </g>
    </g>
    <g id="text_30">
     <text style="font-size: 9px; font-family: 'DejaVu Sans'; text-anchor: middle; fill: #202c37" x="281.866562" y="599.199531" transform="rotate(-0 281.866562 599.199531)">Change in recommendation retest score</text>
    </g>
   </g>
   <g id="matplotlib.axis_4">
    <g id="ytick_10">
     <g id="line2d_37">
      <path d="M 52.366563 560.356682 
L 511.366562 560.356682 
" clip-path="url(#p72e95f5698)" style="fill: none; stroke: #e7e9eb; stroke-width: 0.5; stroke-linecap: square"/>
     </g>
     <g id="line2d_38">
      <g>
       <use xlink:href="#m60f445d0e3" x="52.366563" y="560.356682" style="stroke: #000000; stroke-width: 0.6"/>
      </g>
     </g>
     <g id="text_31">
      <text style="font-size: 8px; font-family: 'DejaVu Sans'; text-anchor: end" x="45.866563" y="563.396057" transform="rotate(-0 45.866563 563.396057)">−0.05</text>
     </g>
    </g>
    <g id="ytick_11">
     <g id="line2d_39">
      <path d="M 52.366563 515.554265 
L 511.366562 515.554265 
" clip-path="url(#p72e95f5698)" style="fill: none; stroke: #e7e9eb; stroke-width: 0.5; stroke-linecap: square"/>
     </g>
     <g id="line2d_40">
      <g>
       <use xlink:href="#m60f445d0e3" x="52.366563" y="515.554265" style="stroke: #000000; stroke-width: 0.6"/>
      </g>
     </g>
     <g id="text_32">
      <text style="font-size: 8px; font-family: 'DejaVu Sans'; text-anchor: end" x="45.866563" y="518.59364" transform="rotate(-0 45.866563 518.59364)">0.00</text>
     </g>
    </g>
    <g id="ytick_12">
     <g id="line2d_41">
      <path d="M 52.366563 470.751848 
L 511.366562 470.751848 
" clip-path="url(#p72e95f5698)" style="fill: none; stroke: #e7e9eb; stroke-width: 0.5; stroke-linecap: square"/>
     </g>
     <g id="line2d_42">
      <g>
       <use xlink:href="#m60f445d0e3" x="52.366563" y="470.751848" style="stroke: #000000; stroke-width: 0.6"/>
      </g>
     </g>
     <g id="text_33">
      <text style="font-size: 8px; font-family: 'DejaVu Sans'; text-anchor: end" x="45.866563" y="473.791223" transform="rotate(-0 45.866563 473.791223)">0.05</text>
     </g>
    </g>
    <g id="ytick_13">
     <g id="line2d_43">
      <path d="M 52.366563 425.949431 
L 511.366562 425.949431 
" clip-path="url(#p72e95f5698)" style="fill: none; stroke: #e7e9eb; stroke-width: 0.5; stroke-linecap: square"/>
     </g>
     <g id="line2d_44">
      <g>
       <use xlink:href="#m60f445d0e3" x="52.366563" y="425.949431" style="stroke: #000000; stroke-width: 0.6"/>
      </g>
     </g>
     <g id="text_34">
      <text style="font-size: 8px; font-family: 'DejaVu Sans'; text-anchor: end" x="45.866563" y="428.988806" transform="rotate(-0 45.866563 428.988806)">0.10</text>
     </g>
    </g>
    <g id="ytick_14">
     <g id="line2d_45">
      <path d="M 52.366563 381.147014 
L 511.366562 381.147014 
" clip-path="url(#p72e95f5698)" style="fill: none; stroke: #e7e9eb; stroke-width: 0.5; stroke-linecap: square"/>
     </g>
     <g id="line2d_46">
      <g>
       <use xlink:href="#m60f445d0e3" x="52.366563" y="381.147014" style="stroke: #000000; stroke-width: 0.6"/>
      </g>
     </g>
     <g id="text_35">
      <text style="font-size: 8px; font-family: 'DejaVu Sans'; text-anchor: end" x="45.866563" y="384.186389" transform="rotate(-0 45.866563 384.186389)">0.15</text>
     </g>
    </g>
    <g id="text_36">
     <text style="font-size: 9px; font-family: 'DejaVu Sans'; text-anchor: middle; fill: #202c37" x="15.478594" y="459.143438" transform="rotate(-90 15.478594 459.143438)">Change in score-prediction MAE</text>
    </g>
   </g>
   <g id="line2d_47">
    <path d="M 52.366563 515.554265 
L 511.366562 515.554265 
" clip-path="url(#p72e95f5698)" style="fill: none; stroke: #a0a8ae; stroke-width: 0.7; stroke-linecap: square"/>
   </g>
   <g id="line2d_48">
    <path d="M 270.167643 574.118438 
L 270.167643 344.168438 
" clip-path="url(#p72e95f5698)" style="fill: none; stroke: #a0a8ae; stroke-width: 0.7; stroke-linecap: square"/>
   </g>
   <g id="patch_6">
    <path d="M 52.366563 574.118438 
L 52.366563 344.168437 
" style="fill: none; stroke: #202c37; stroke-width: 0.7; stroke-linejoin: miter; stroke-linecap: square"/>
   </g>
   <g id="patch_7">
    <path d="M 52.366562 574.118438 
L 511.366562 574.118438 
" style="fill: none; stroke: #202c37; stroke-width: 0.7; stroke-linejoin: miter; stroke-linecap: square"/>
   </g>
   <g id="PathCollection_31">
    <g clip-path="url(#p72e95f5698)">
     <use xlink:href="#meb954cb457" x="414.230685" y="450.814772" style="fill: #ffffff; stroke: #3d5268; stroke-width: 0.9"/>
    </g>
   </g>
   <g id="PathCollection_32">
    <g clip-path="url(#p72e95f5698)">
     <use xlink:href="#me5617a30c4" x="236.30643" y="481.150471" style="fill: #ffffff; stroke: #397a75; stroke-width: 0.9"/>
    </g>
   </g>
   <g id="PathCollection_33">
    <g clip-path="url(#p72e95f5698)">
     <use xlink:href="#m93da384d96" x="146.721903" y="467.894965" style="fill: #ffffff; stroke: #956448; stroke-width: 0.9"/>
    </g>
   </g>
   <g id="PathCollection_34">
    <g clip-path="url(#p72e95f5698)">
     <use xlink:href="#mec32db3c9d" x="94.292242" y="501.366833" style="fill: #3d5268; stroke: #3d5268; stroke-width: 0.9"/>
    </g>
   </g>
   <g id="PathCollection_35">
    <g clip-path="url(#p72e95f5698)">
     <use xlink:href="#m41885bbdbf" x="204.37637" y="498.111348" style="fill: #397a75; stroke: #397a75; stroke-width: 0.9"/>
    </g>
   </g>
   <g id="PathCollection_36">
    <g clip-path="url(#p72e95f5698)">
     <use xlink:href="#m9f05b1f673" x="175.932463" y="554.530743" style="fill: #956448; stroke: #956448; stroke-width: 0.9"/>
    </g>
   </g>
   <g id="PathCollection_37">
    <g clip-path="url(#p72e95f5698)">
     <use xlink:href="#mbdd7684b87" x="307.417114" y="559.460634" style="fill: #ffffff; stroke: #3d5268; stroke-width: 0.9"/>
    </g>
   </g>
   <g id="PathCollection_38">
    <g clip-path="url(#p72e95f5698)">
     <use xlink:href="#m0393cd2385" x="73.230199" y="509.982399" style="fill: #ffffff; stroke: #397a75; stroke-width: 0.9"/>
    </g>
   </g>
   <g id="PathCollection_39">
    <g clip-path="url(#p72e95f5698)">
     <use xlink:href="#mf957d34b0b" x="139.305878" y="513.607259" style="fill: #ffffff; stroke: #956448; stroke-width: 0.9"/>
    </g>
   </g>
   <g id="PathCollection_40">
    <g clip-path="url(#p72e95f5698)">
     <use xlink:href="#m9d6a288a9a" x="490.502926" y="496.018337" style="fill: #3d5268; stroke: #3d5268; stroke-width: 0.9"/>
    </g>
   </g>
   <g id="PathCollection_41">
    <g clip-path="url(#p72e95f5698)">
     <use xlink:href="#ma47a19f747" x="444.706716" y="510.188145" style="fill: #397a75; stroke: #397a75; stroke-width: 0.9"/>
    </g>
   </g>
   <g id="PathCollection_42">
    <g clip-path="url(#p72e95f5698)">
     <use xlink:href="#m667628589b" x="193.755952" y="487.955195" style="fill: #956448; stroke: #956448; stroke-width: 0.9"/>
    </g>
   </g>
   <g id="PathCollection_43">
    <g clip-path="url(#p72e95f5698)">
     <use xlink:href="#m6dbf04ee3b" x="221.37206" y="534.37128" style="fill: #ffffff; stroke: #3d5268; stroke-width: 0.9"/>
    </g>
   </g>
   <g id="PathCollection_44">
    <g clip-path="url(#p72e95f5698)">
     <use xlink:href="#m18eb1c97c6" x="277.768127" y="563.666165" style="fill: #ffffff; stroke: #397a75; stroke-width: 0.9"/>
    </g>
   </g>
   <g id="PathCollection_45">
    <g clip-path="url(#p72e95f5698)">
     <use xlink:href="#ma0af734a4f" x="169.466364" y="474.445648" style="fill: #ffffff; stroke: #956448; stroke-width: 0.9"/>
    </g>
   </g>
   <g id="PathCollection_46">
    <g clip-path="url(#p72e95f5698)">
     <use xlink:href="#m32e110ee66" x="319.609534" y="456.761552" style="fill: #3d5268; stroke: #3d5268; stroke-width: 0.9"/>
    </g>
   </g>
   <g id="PathCollection_47">
    <g clip-path="url(#p72e95f5698)">
     <use xlink:href="#me1c4ebbb38" x="225.634798" y="526.737068" style="fill: #397a75; stroke: #397a75; stroke-width: 0.9"/>
    </g>
   </g>
   <g id="PathCollection_48">
    <g clip-path="url(#p72e95f5698)">
     <use xlink:href="#mac5f131952" x="483.924954" y="517.25389" style="fill: #956448; stroke: #956448; stroke-width: 0.9"/>
    </g>
   </g>
   <g id="PathCollection_49">
    <g clip-path="url(#p72e95f5698)">
     <use xlink:href="#md19b0b9f97" x="246.29495" y="461.213011" style="fill: #ffffff; stroke: #3d5268; stroke-width: 0.9"/>
    </g>
   </g>
   <g id="PathCollection_50">
    <g clip-path="url(#p72e95f5698)">
     <use xlink:href="#md87ec917f6" x="165.55549" y="526.256726" style="fill: #ffffff; stroke: #397a75; stroke-width: 0.9"/>
    </g>
   </g>
   <g id="PathCollection_51">
    <g clip-path="url(#p72e95f5698)">
     <use xlink:href="#ma2775b3d8a" x="136.335431" y="439.757865" style="fill: #ffffff; stroke: #956448; stroke-width: 0.9"/>
    </g>
   </g>
   <g id="PathCollection_52">
    <g clip-path="url(#p72e95f5698)">
     <use xlink:href="#m0a99279a94" x="168.037644" y="454.45193" style="fill: #3d5268; stroke: #3d5268; stroke-width: 0.9"/>
    </g>
   </g>
   <g id="PathCollection_53">
    <g clip-path="url(#p72e95f5698)">
     <use xlink:href="#m75bdf431b1" x="322.23211" y="508.748102" style="fill: #397a75; stroke: #397a75; stroke-width: 0.9"/>
    </g>
   </g>
   <g id="PathCollection_54">
    <g clip-path="url(#p72e95f5698)">
     <use xlink:href="#mdd151d7f14" x="240.591079" y="492.047907" style="fill: #956448; stroke: #956448; stroke-width: 0.9"/>
    </g>
   </g>
   <g id="PathCollection_55">
    <g clip-path="url(#p72e95f5698)">
     <use xlink:href="#m72d37c0745" x="164.24118" y="506.44444" style="fill: #ffffff; stroke: #3d5268; stroke-width: 0.9"/>
    </g>
   </g>
   <g id="PathCollection_56">
    <g clip-path="url(#p72e95f5698)">
     <use xlink:href="#mbcdbe39a6f" x="200.005913" y="354.62071" style="fill: #ffffff; stroke: #397a75; stroke-width: 0.9"/>
    </g>
   </g>
   <g id="PathCollection_57">
    <g clip-path="url(#p72e95f5698)">
     <use xlink:href="#mf7682c3039" x="175.63381" y="501.515001" style="fill: #ffffff; stroke: #956448; stroke-width: 0.9"/>
    </g>
   </g>
   <g id="PathCollection_58">
    <g clip-path="url(#p72e95f5698)">
     <use xlink:href="#mb640c8a4a7" x="260.903684" y="477.752358" style="fill: #3d5268; stroke: #3d5268; stroke-width: 0.9"/>
    </g>
   </g>
   <g id="PathCollection_59">
    <g clip-path="url(#p72e95f5698)">
     <use xlink:href="#m42e8a02737" x="247.437753" y="488.905171" style="fill: #397a75; stroke: #397a75; stroke-width: 0.9"/>
    </g>
   </g>
   <g id="PathCollection_60">
    <g clip-path="url(#p72e95f5698)">
     <use xlink:href="#m136fb58b16" x="449.249812" y="538.58459" style="fill: #956448; stroke: #956448; stroke-width: 0.9"/>
    </g>
   </g>
   <g id="text_37">
    <text style="font-size: 7.3px; font-family: 'DejaVu Sans'; text-anchor: start; fill: #202c37" x="61.546563" y="354.314297" transform="rotate(-0 61.546563 354.314297)">Open: parameter prior; filled: structure prior</text>
   </g>
   <g id="text_38">
    <text style="font-size: 10px; font-family: 'DejaVu Sans'; text-anchor: start; fill: #202c37" x="52.366563" y="338.168438" transform="rotate(-0 52.366563 338.168438)">b  RX: optimization minus discovery</text>
   </g>
  </g>
  <g id="text_39">
   <text style="font-size: 8px; font-family: 'DejaVu Sans'; text-anchor: start; fill: #202c37" x="30.766563" y="689.786438" transform="rotate(-0 30.766563 689.786438)">Matched pairs: EC 30; RX 30. Better retest / better prediction / better retest + worse prediction:</text>
  </g>
  <g id="text_40">
   <text style="font-size: 8px; font-family: 'DejaVu Sans'; text-anchor: start; fill: #202c37" x="30.766563" y="706.418437" transform="rotate(-0 30.766563 706.418437)">EC: 26 / 14 / 13.   RX: 9 / 8 / 5.   Five reused worlds per study; system-specific score scales.</text>
  </g>
  <g id="legend_1">
   <g id="line2d_49">
    <defs>
     <path id="m115b337101" d="M 0 2.5 
C 0.663008 2.5 1.29895 2.236584 1.767767 1.767767 
C 2.236584 1.29895 2.5 0.663008 2.5 0 
C 2.5 -0.663008 2.236584 -1.29895 1.767767 -1.767767 
C 1.29895 -2.236584 0.663008 -2.5 0 -2.5 
C -0.663008 -2.5 -1.29895 -2.236584 -1.767767 -1.767767 
C -2.236584 -1.29895 -2.5 -0.663008 -2.5 0 
C -2.5 0.663008 -2.236584 1.29895 -1.767767 1.767767 
C -1.29895 2.236584 -0.663008 2.5 0 2.5 
z
" style="stroke: #3d5268"/>
    </defs>
    <g>
     <use xlink:href="#m115b337101" x="140.466563" y="645.212188" style="fill: #3d5268; stroke: #3d5268"/>
    </g>
   </g>
   <g id="text_41">
    <text style="font-size: 8px; font-family: 'DejaVu Sans'; text-anchor: start; fill: #202c37" x="154.866563" y="648.012187" transform="rotate(-0 154.866563 648.012187)">Opaque</text>
   </g>
   <g id="line2d_50">
    <defs>
     <path id="mc3d930ff6f" d="M 0 2.5 
C 0.663008 2.5 1.29895 2.236584 1.767767 1.767767 
C 2.236584 1.29895 2.5 0.663008 2.5 0 
C 2.5 -0.663008 2.236584 -1.29895 1.767767 -1.767767 
C 1.29895 -2.236584 0.663008 -2.5 0 -2.5 
C -0.663008 -2.5 -1.29895 -2.236584 -1.767767 -1.767767 
C -2.236584 -1.29895 -2.5 -0.663008 -2.5 0 
C -2.5 0.663008 -2.236584 1.29895 -1.767767 1.767767 
C -1.29895 2.236584 -0.663008 2.5 0 2.5 
z
" style="stroke: #397a75"/>
    </defs>
    <g>
     <use xlink:href="#mc3d930ff6f" x="140.466563" y="656.954688" style="fill: #397a75; stroke: #397a75"/>
    </g>
   </g>
   <g id="text_42">
    <text style="font-size: 8px; font-family: 'DejaVu Sans'; text-anchor: start; fill: #202c37" x="154.866563" y="659.754688" transform="rotate(-0 154.866563 659.754688)">Aligned</text>
   </g>
   <g id="line2d_51">
    <defs>
     <path id="m611513aeaf" d="M 0 2.5 
C 0.663008 2.5 1.29895 2.236584 1.767767 1.767767 
C 2.236584 1.29895 2.5 0.663008 2.5 0 
C 2.5 -0.663008 2.236584 -1.29895 1.767767 -1.767767 
C 1.29895 -2.236584 0.663008 -2.5 0 -2.5 
C -0.663008 -2.5 -1.29895 -2.236584 -1.767767 -1.767767 
C -2.236584 -1.29895 -2.5 -0.663008 -2.5 0 
C -2.5 0.663008 -2.236584 1.29895 -1.767767 1.767767 
C -1.29895 2.236584 -0.663008 2.5 0 2.5 
z
" style="stroke: #956448"/>
    </defs>
    <g>
     <use xlink:href="#m611513aeaf" x="210.216563" y="645.212188" style="fill: #956448; stroke: #956448"/>
    </g>
   </g>
   <g id="text_43">
    <text style="font-size: 8px; font-family: 'DejaVu Sans'; text-anchor: start; fill: #202c37" x="224.616563" y="648.012187" transform="rotate(-0 224.616563 648.012187)">MisIndexed</text>
   </g>
   <g id="line2d_52">
    <defs>
     <path id="md8d2e54414" d="M 0 2.5 
C 0.663008 2.5 1.29895 2.236584 1.767767 1.767767 
C 2.236584 1.29895 2.5 0.663008 2.5 0 
C 2.5 -0.663008 2.236584 -1.29895 1.767767 -1.767767 
C 1.29895 -2.236584 0.663008 -2.5 0 -2.5 
C -0.663008 -2.5 -1.29895 -2.236584 -1.767767 -1.767767 
C -2.236584 -1.29895 -2.5 -0.663008 -2.5 0 
C -2.5 0.663008 -2.236584 1.29895 -1.767767 1.767767 
C -1.29895 2.236584 -0.663008 2.5 0 2.5 
z
" style="stroke: #3e4246"/>
    </defs>
    <g>
     <use xlink:href="#md8d2e54414" x="210.216563" y="656.954688" style="fill: #3e4246; stroke: #3e4246"/>
    </g>
   </g>
   <g id="text_44">
    <text style="font-size: 8px; font-family: 'DejaVu Sans'; text-anchor: start; fill: #202c37" x="224.616563" y="659.754688" transform="rotate(-0 224.616563 659.754688)">W01</text>
   </g>
   <g id="line2d_53">
    <defs>
     <path id="m04eb01e908" d="M -2.5 2.5 
L 2.5 2.5 
L 2.5 -2.5 
L -2.5 -2.5 
z
" style="stroke: #3e4246; stroke-linejoin: miter"/>
    </defs>
    <g>
     <use xlink:href="#m04eb01e908" x="293.686563" y="645.212188" style="fill: #3e4246; stroke: #3e4246; stroke-linejoin: miter"/>
    </g>
   </g>
   <g id="text_45">
    <text style="font-size: 8px; font-family: 'DejaVu Sans'; text-anchor: start; fill: #202c37" x="308.086563" y="648.012187" transform="rotate(-0 308.086563 648.012187)">W02</text>
   </g>
   <g id="line2d_54">
    <defs>
     <path id="mc7cb65fe9e" d="M 0 -2.5 
L -2.5 2.5 
L 2.5 2.5 
z
" style="stroke: #3e4246; stroke-linejoin: miter"/>
    </defs>
    <g>
     <use xlink:href="#mc7cb65fe9e" x="293.686563" y="656.954688" style="fill: #3e4246; stroke: #3e4246; stroke-linejoin: miter"/>
    </g>
   </g>
   <g id="text_46">
    <text style="font-size: 8px; font-family: 'DejaVu Sans'; text-anchor: start; fill: #202c37" x="308.086563" y="659.754688" transform="rotate(-0 308.086563 659.754688)">W03</text>
   </g>
   <g id="line2d_55">
    <defs>
     <path id="m96e5f4ddf2" d="M 0 3.535534 
L 3.535534 0 
L 0 -3.535534 
L -3.535534 0 
z
" style="stroke: #3e4246; stroke-linejoin: miter"/>
    </defs>
    <g>
     <use xlink:href="#m96e5f4ddf2" x="350.176563" y="645.212188" style="fill: #3e4246; stroke: #3e4246; stroke-linejoin: miter"/>
    </g>
   </g>
   <g id="text_47">
    <text style="font-size: 8px; font-family: 'DejaVu Sans'; text-anchor: start; fill: #202c37" x="364.576563" y="648.012187" transform="rotate(-0 364.576563 648.012187)">W04</text>
   </g>
   <g id="line2d_56">
    <defs>
     <path id="m8c07829447" d="M -0 2.5 
L 2.5 -2.5 
L -2.5 -2.5 
z
" style="stroke: #3e4246; stroke-linejoin: miter"/>
    </defs>
    <g>
     <use xlink:href="#m8c07829447" x="350.176563" y="656.954688" style="fill: #3e4246; stroke: #3e4246; stroke-linejoin: miter"/>
    </g>
   </g>
   <g id="text_48">
    <text style="font-size: 8px; font-family: 'DejaVu Sans'; text-anchor: start; fill: #202c37" x="364.576563" y="659.754688" transform="rotate(-0 364.576563 659.754688)">W05</text>
   </g>
  </g>
 </g>
 <defs>
  <clipPath id="p59101dde82">
   <rect x="52.366563" y="22.238438" width="459" height="229.95"/>
  </clipPath>
  <clipPath id="p72e95f5698">
   <rect x="52.366563" y="344.168438" width="459" height="229.95"/>
  </clipPath>
 </defs>
</svg>
