<?xml version="1.0" encoding="utf-8" standalone="no"?>
<!DOCTYPE svg PUBLIC "-//W3C//DTD SVG 1.1//EN"
  "http://www.w3.org/Graphics/SVG/1.1/DTD/svg11.dtd">
<svg xmlns:xlink="http://www.w3.org/1999/xlink" width="1036.8pt" height="1152pt" viewBox="0 0 1036.8 1152" xmlns="http://www.w3.org/2000/svg" version="1.1">
 <metadata>
  <rdf:RDF xmlns:dc="http://purl.org/dc/elements/1.1/" xmlns:cc="http://creativecommons.org/ns#" xmlns:rdf="http://www.w3.org/1999/02/22-rdf-syntax-ns#">
   <cc:Work>
    <dc:type rdf:resource="http://purl.org/dc/dcmitype/StillImage"/>
    <dc:format>image/svg+xml</dc:format>
    <dc:creator>
     <cc:Agent>
      <dc:title>Matplotlib v3.10.9, https://matplotlib.org/</dc:title>
     </cc:Agent>
    </dc:creator>
   </cc:Work>
  </rdf:RDF>
 </metadata>
 <defs>
  <style type="text/css">*{stroke-linejoin: round; stroke-linecap: butt}</style>
 </defs>
 <g id="figure_1">
  <g id="patch_1">
   <path d="M 0 1152
L 1036.8 1152
L 1036.8 0
L 0 0
z
" style="fill: #ffffff"/>
  </g>
  <g id="patch_2">
   <path d="M 748.5696 913.536
L 1028.5056 913.536
L 1028.5056 737.28
L 748.5696 737.28
z
" style="fill: #f2f4f4"/>
  </g>
  <g id="axes_1">
   <g id="patch_3">
    <path d="M 80.8704 291.456
L 485.2224 291.456
L 485.2224 117.504
L 80.8704 117.504
z
" style="fill: #ffffff"/>
   </g>
   <g id="matplotlib.axis_1">
    <g id="xtick_1">
     <g id="line2d_1"/>
     <g id="text_1">
      <text style="font-size: 16px; font-family: 'Arial'; text-anchor: middle; fill: #697781" x="97.442203" y="309.9085" transform="rotate(-0 97.442203 309.9085)">1</text>
     </g>
    </g>
    <g id="xtick_2">
     <g id="line2d_2"/>
     <g id="text_2">
      <text style="font-size: 16px; font-family: 'Arial'; text-anchor: middle; fill: #697781" x="196.873023" y="309.9085" transform="rotate(-0 196.873023 309.9085)">4</text>
     </g>
    </g>
    <g id="xtick_3">
     <g id="line2d_3"/>
     <g id="text_3">
      <text style="font-size: 16px; font-family: 'Arial'; text-anchor: middle; fill: #697781" x="329.447449" y="309.9085" transform="rotate(-0 329.447449 309.9085)">8</text>
     </g>
    </g>
    <g id="xtick_4">
     <g id="line2d_4"/>
     <g id="text_4">
      <text style="font-size: 16px; font-family: 'Arial'; text-anchor: middle; fill: #697781" x="462.021875" y="309.9085" transform="rotate(-0 462.021875 309.9085)">12</text>
     </g>
    </g>
    <g id="text_5">
     <text style="font-size: 16px; font-family: 'Arial'; text-anchor: middle; fill: #34434c" x="283.0464" y="331.541" transform="rotate(-0 283.0464 331.541)">Batch</text>
    </g>
   </g>
   <g id="matplotlib.axis_2">
    <g id="ytick_1">
     <g id="line2d_5">
      <path d="M 80.8704 291.456
L 485.2224 291.456
" clip-path="url(#p04737e5c73)" style="fill: none; stroke: #e5e9ec; stroke-width: 0.6; stroke-linecap: square"/>
     </g>
     <g id="line2d_6"/>
     <g id="text_6">
      <text style="font-size: 16px; font-family: 'Arial'; text-anchor: end; fill: #697781" x="73.8704" y="297.18225" transform="rotate(-0 73.8704 297.18225)">0</text>
     </g>
    </g>
    <g id="ytick_2">
     <g id="line2d_7">
      <path d="M 80.8704 240.293647
L 485.2224 240.293647
" clip-path="url(#p04737e5c73)" style="fill: none; stroke: #e5e9ec; stroke-width: 0.6; stroke-linecap: square"/>
     </g>
     <g id="line2d_8"/>
     <g id="text_7">
      <text style="font-size: 16px; font-family: 'Arial'; text-anchor: end; fill: #697781" x="73.8704" y="246.019897" transform="rotate(-0 73.8704 246.019897)">20</text>
     </g>
    </g>
    <g id="ytick_3">
     <g id="line2d_9">
      <path d="M 80.8704 189.131294
L 485.2224 189.131294
" clip-path="url(#p04737e5c73)" style="fill: none; stroke: #e5e9ec; stroke-width: 0.6; stroke-linecap: square"/>
     </g>
     <g id="line2d_10"/>
     <g id="text_8">
      <text style="font-size: 16px; font-family: 'Arial'; text-anchor: end; fill: #697781" x="73.8704" y="194.857544" transform="rotate(-0 73.8704 194.857544)">40</text>
     </g>
    </g>
    <g id="ytick_4">
     <g id="line2d_11">
      <path d="M 80.8704 137.968941
L 485.2224 137.968941
" clip-path="url(#p04737e5c73)" style="fill: none; stroke: #e5e9ec; stroke-width: 0.6; stroke-linecap: square"/>
     </g>
     <g id="line2d_12"/>
     <g id="text_9">
      <text style="font-size: 16px; font-family: 'Arial'; text-anchor: end; fill: #697781" x="73.8704" y="143.695191" transform="rotate(-0 73.8704 143.695191)">60</text>
     </g>
    </g>
    <g id="text_10">
     <text style="font-size: 16px; font-family: 'Arial'; text-anchor: middle; fill: #34434c" x="48.7079" y="204.48" transform="rotate(-90 48.7079 204.48)">Recovery (%)</text>
    </g>
   </g>
   <g id="line2d_13">
    <path d="M 97.442203 202.69011
L 130.58581 202.69011
L 130.58581 202.69011
L 163.729416 202.69011
L 163.729416 202.69011
L 196.873023 202.69011
L 196.873023 194.900302
L 230.01663 194.900302
L 230.01663 194.900302
L 263.160236 194.900302
L 263.160236 174.110676
L 296.303843 174.110676
L 296.303843 174.110676
L 329.447449 174.110676
L 329.447449 165.718894
L 362.591056 165.718894
L 362.591056 163.940311
L 395.734662 163.940311
L 395.734662 160.547947
L 428.878269 160.547947
L 428.878269 160.547947
L 462.021875 160.547947
L 462.021875 160.547947
" clip-path="url(#p04737e5c73)" style="fill: none; stroke: #607d95; stroke-width: 1.7; stroke-linecap: square"/>
   </g>
   <g id="patch_4">
    <path d="M 80.8704 291.456
L 80.8704 117.504
" style="fill: none; stroke: #adb8be; stroke-width: 0.7; stroke-linejoin: miter; stroke-linecap: square"/>
   </g>
   <g id="PathCollection_1">
    <defs>
     <path id="m334ff353cf" d="M 0 2.783882
C 0.738294 2.783882 1.446449 2.490555 1.968502 1.968502
C 2.490555 1.446449 2.783882 0.738294 2.783882 0
C 2.783882 -0.738294 2.490555 -1.446449 1.968502 -1.968502
C 1.446449 -2.490555 0.738294 -2.783882 0 -2.783882
C -0.738294 -2.783882 -1.446449 -2.490555 -1.968502 -1.968502
C -2.490555 -1.446449 -2.783882 -0.738294 -2.783882 0
C -2.783882 0.738294 -2.490555 1.446449 -1.968502 1.968502
C -1.446449 2.490555 -0.738294 2.783882 0 2.783882
z
" style="stroke: #607d95"/>
    </defs>
    <g clip-path="url(#p04737e5c73)">
     <use xlink:href="#m334ff353cf" x="97.442203" y="202.69011" style="fill: #607d95; stroke: #607d95"/>
     <use xlink:href="#m334ff353cf" x="130.58581" y="212.910403" style="fill: #607d95; stroke: #607d95"/>
     <use xlink:href="#m334ff353cf" x="163.729416" y="211.245582" style="fill: #607d95; stroke: #607d95"/>
     <use xlink:href="#m334ff353cf" x="196.873023" y="194.900302" style="fill: #607d95; stroke: #607d95"/>
     <use xlink:href="#m334ff353cf" x="263.160236" y="174.110676" style="fill: #607d95; stroke: #607d95"/>
     <use xlink:href="#m334ff353cf" x="329.447449" y="165.718894" style="fill: #607d95; stroke: #607d95"/>
     <use xlink:href="#m334ff353cf" x="362.591056" y="163.940311" style="fill: #607d95; stroke: #607d95"/>
     <use xlink:href="#m334ff353cf" x="395.734662" y="160.547947" style="fill: #607d95; stroke: #607d95"/>
     <use xlink:href="#m334ff353cf" x="428.878269" y="162.85986" style="fill: #607d95; stroke: #607d95"/>
     <use xlink:href="#m334ff353cf" x="462.021875" y="162.426707" style="fill: #607d95; stroke: #607d95"/>
    </g>
   </g>
   <g id="PathCollection_2">
    <defs>
     <path id="mc5501d1bb5" d="M -2.915476 2.915476
L 2.915476 -2.915476
M -2.915476 -2.915476
L 2.915476 2.915476
" style="stroke: #ba8066; stroke-width: 1.05"/>
    </defs>
    <g clip-path="url(#p04737e5c73)">
     <use xlink:href="#mc5501d1bb5" x="230.01663" y="176.948347" style="fill: #ba8066; stroke: #ba8066; stroke-width: 1.05"/>
     <use xlink:href="#mc5501d1bb5" x="296.303843" y="211.379806" style="fill: #ba8066; stroke: #ba8066; stroke-width: 1.05"/>
    </g>
   </g>
   <g id="patch_5">
    <path d="M 316.40358 138.177858
Q 355.106777 149.091537 393.809973 160.005216
" style="fill: none; stroke: #607d95; stroke-width: 0.8; stroke-linecap: round"/>
   </g>
   <g id="text_11">
    <text style="font-size: 14px; font-family: 'Arial'; text-anchor: start; fill: #34434c" x="226.702269" y="132.852706" transform="rotate(-0 226.702269 132.852706)">Selected: batch 10</text>
   </g>
   <g id="PathCollection_3">
    <path d="M 395.734662 165.15772
C 396.957188 165.15772 398.129807 164.672005 398.994263 163.807549
C 399.85872 162.943092 400.344435 161.770473 400.344435 160.547947
C 400.344435 159.325422 399.85872 158.152803 398.994263 157.288346
C 398.129807 156.42389 396.957188 155.938175 395.734662 155.938175
C 394.512136 155.938175 393.339517 156.42389 392.475061 157.288346
C 391.610605 158.152803 391.12489 159.325422 391.12489 160.547947
C 391.12489 161.770473 391.610605 162.943092 392.475061 163.807549
C 393.339517 164.672005 394.512136 165.15772 395.734662 165.15772
L 395.734662 165.15772
z
" clip-path="url(#p04737e5c73)" style="fill: none; stroke: #607d95; stroke-width: 1.3"/>
   </g>
  </g>
  <g id="axes_2">
   <g id="patch_6">
    <path d="M 588.9024 291.456
L 993.2544 291.456
L 993.2544 117.504
L 588.9024 117.504
z
" style="fill: #ffffff"/>
   </g>
   <g id="matplotlib.axis_3">
    <g id="xtick_5">
     <g id="line2d_14"/>
     <g id="text_12">
      <text style="font-size: 16px; font-family: 'Arial'; text-anchor: middle; fill: #697781" x="597.25678" y="309.9085" transform="rotate(-0 597.25678 309.9085)">1</text>
     </g>
    </g>
    <g id="xtick_6">
     <g id="line2d_15"/>
     <g id="text_13">
      <text style="font-size: 16px; font-family: 'Arial'; text-anchor: middle; fill: #697781" x="647.383061" y="309.9085" transform="rotate(-0 647.383061 309.9085)">4</text>
     </g>
    </g>
    <g id="xtick_7">
     <g id="line2d_16"/>
     <g id="text_14">
      <text style="font-size: 16px; font-family: 'Arial'; text-anchor: middle; fill: #697781" x="714.218102" y="309.9085" transform="rotate(-0 714.218102 309.9085)">8</text>
     </g>
    </g>
    <g id="xtick_8">
     <g id="line2d_17"/>
     <g id="text_15">
      <text style="font-size: 16px; font-family: 'Arial'; text-anchor: middle; fill: #697781" x="781.053144" y="309.9085" transform="rotate(-0 781.053144 309.9085)">12</text>
     </g>
    </g>
    <g id="xtick_9">
     <g id="line2d_18"/>
     <g id="text_16">
      <text style="font-size: 16px; font-family: 'Arial'; text-anchor: middle; fill: #697781" x="847.888185" y="309.9085" transform="rotate(-0 847.888185 309.9085)">16</text>
     </g>
    </g>
    <g id="xtick_10">
     <g id="line2d_19"/>
     <g id="text_17">
      <text style="font-size: 16px; font-family: 'Arial'; text-anchor: middle; fill: #697781" x="914.723226" y="309.9085" transform="rotate(-0 914.723226 309.9085)">20</text>
     </g>
    </g>
    <g id="xtick_11">
     <g id="line2d_20"/>
     <g id="text_18">
      <text style="font-size: 16px; font-family: 'Arial'; text-anchor: middle; fill: #697781" x="981.558268" y="309.9085" transform="rotate(-0 981.558268 309.9085)">24</text>
     </g>
    </g>
    <g id="text_19">
     <text style="font-size: 16px; font-family: 'Arial'; text-anchor: middle; fill: #34434c" x="791.0784" y="331.541" transform="rotate(-0 791.0784 331.541)">Batch</text>
    </g>
   </g>
   <g id="matplotlib.axis_4">
    <g id="ytick_5">
     <g id="line2d_21">
      <path d="M 588.9024 291.456
L 993.2544 291.456
" clip-path="url(#p192ab7aad3)" style="fill: none; stroke: #e5e9ec; stroke-width: 0.6; stroke-linecap: square"/>
     </g>
     <g id="line2d_22"/>
     <g id="text_20">
      <text style="font-size: 16px; font-family: 'Arial'; text-anchor: end; fill: #697781" x="581.9024" y="297.18225" transform="rotate(-0 581.9024 297.18225)">0</text>
     </g>
    </g>
    <g id="ytick_6">
     <g id="line2d_23">
      <path d="M 588.9024 240.293647
L 993.2544 240.293647
" clip-path="url(#p192ab7aad3)" style="fill: none; stroke: #e5e9ec; stroke-width: 0.6; stroke-linecap: square"/>
     </g>
     <g id="line2d_24"/>
     <g id="text_21">
      <text style="font-size: 16px; font-family: 'Arial'; text-anchor: end; fill: #697781" x="581.9024" y="246.019897" transform="rotate(-0 581.9024 246.019897)">20</text>
     </g>
    </g>
    <g id="ytick_7">
     <g id="line2d_25">
      <path d="M 588.9024 189.131294
L 993.2544 189.131294
" clip-path="url(#p192ab7aad3)" style="fill: none; stroke: #e5e9ec; stroke-width: 0.6; stroke-linecap: square"/>
     </g>
     <g id="line2d_26"/>
     <g id="text_22">
      <text style="font-size: 16px; font-family: 'Arial'; text-anchor: end; fill: #697781" x="581.9024" y="194.857544" transform="rotate(-0 581.9024 194.857544)">40</text>
     </g>
    </g>
    <g id="ytick_8">
     <g id="line2d_27">
      <path d="M 588.9024 137.968941
L 993.2544 137.968941
" clip-path="url(#p192ab7aad3)" style="fill: none; stroke: #e5e9ec; stroke-width: 0.6; stroke-linecap: square"/>
     </g>
     <g id="line2d_28"/>
     <g id="text_23">
      <text style="font-size: 16px; font-family: 'Arial'; text-anchor: end; fill: #697781" x="581.9024" y="143.695191" transform="rotate(-0 581.9024 143.695191)">60</text>
     </g>
    </g>
    <g id="text_24">
     <text style="font-size: 16px; font-family: 'Arial'; text-anchor: middle; fill: #34434c" x="556.7399" y="204.48" transform="rotate(-90 556.7399 204.48)">Recovery (%)</text>
    </g>
   </g>
   <g id="line2d_29">
    <path d="M 914.723226 156.207361
L 931.431987 156.207361
L 931.431987 150.070656
L 948.140747 150.070656
L 948.140747 145.749282
L 964.849507 145.749282
L 964.849507 145.672282
L 981.558268 145.672282
L 981.558268 145.672282
" clip-path="url(#p192ab7aad3)" style="fill: none; stroke: #337f89; stroke-width: 1.7; stroke-linecap: square"/>
   </g>
   <g id="patch_7">
    <path d="M 588.9024 291.456
L 588.9024 117.504
" style="fill: none; stroke: #adb8be; stroke-width: 0.7; stroke-linejoin: miter; stroke-linecap: square"/>
   </g>
   <g id="PathCollection_4">
    <defs>
     <path id="m8a6fbb1328" d="M 0 2.783882
C 0.738294 2.783882 1.446449 2.490555 1.968502 1.968502
C 2.490555 1.446449 2.783882 0.738294 2.783882 0
C 2.783882 -0.738294 2.490555 -1.446449 1.968502 -1.968502
C 1.446449 -2.490555 0.738294 -2.783882 0 -2.783882
C -0.738294 -2.783882 -1.446449 -2.490555 -1.968502 -1.968502
C -2.490555 -1.446449 -2.783882 -0.738294 -2.783882 0
C -2.783882 0.738294 -2.490555 1.446449 -1.968502 1.968502
C -1.446449 2.490555 -0.738294 2.783882 0 2.783882
z
" style="stroke: #337f89"/>
    </defs>
    <g clip-path="url(#p192ab7aad3)">
     <use xlink:href="#m8a6fbb1328" x="914.723226" y="156.207361" style="fill: #337f89; stroke: #337f89"/>
     <use xlink:href="#m8a6fbb1328" x="931.431987" y="150.070656" style="fill: #337f89; stroke: #337f89"/>
     <use xlink:href="#m8a6fbb1328" x="948.140747" y="145.749282" style="fill: #337f89; stroke: #337f89"/>
     <use xlink:href="#m8a6fbb1328" x="964.849507" y="145.672282" style="fill: #337f89; stroke: #337f89"/>
     <use xlink:href="#m8a6fbb1328" x="981.558268" y="146.18396" style="fill: #337f89; stroke: #337f89"/>
    </g>
   </g>
   <g id="PathCollection_5">
    <g clip-path="url(#p192ab7aad3)">
     <use xlink:href="#mc5501d1bb5" x="597.25678" y="195.473222" style="fill: #ba8066; stroke: #ba8066; stroke-width: 1.05"/>
     <use xlink:href="#mc5501d1bb5" x="613.96554" y="189.728601" style="fill: #ba8066; stroke: #ba8066; stroke-width: 1.05"/>
     <use xlink:href="#mc5501d1bb5" x="630.674301" y="231.992088" style="fill: #ba8066; stroke: #ba8066; stroke-width: 1.05"/>
     <use xlink:href="#mc5501d1bb5" x="647.383061" y="169.380956" style="fill: #ba8066; stroke: #ba8066; stroke-width: 1.05"/>
     <use xlink:href="#mc5501d1bb5" x="664.091821" y="193.957423" style="fill: #ba8066; stroke: #ba8066; stroke-width: 1.05"/>
     <use xlink:href="#mc5501d1bb5" x="680.800582" y="186.982247" style="fill: #ba8066; stroke: #ba8066; stroke-width: 1.05"/>
     <use xlink:href="#mc5501d1bb5" x="697.509342" y="188.534518" style="fill: #ba8066; stroke: #ba8066; stroke-width: 1.05"/>
     <use xlink:href="#mc5501d1bb5" x="714.218102" y="186.966488" style="fill: #ba8066; stroke: #ba8066; stroke-width: 1.05"/>
     <use xlink:href="#mc5501d1bb5" x="730.926863" y="171.312434" style="fill: #ba8066; stroke: #ba8066; stroke-width: 1.05"/>
     <use xlink:href="#mc5501d1bb5" x="747.635623" y="198.096269" style="fill: #ba8066; stroke: #ba8066; stroke-width: 1.05"/>
     <use xlink:href="#mc5501d1bb5" x="764.344383" y="183.674576" style="fill: #ba8066; stroke: #ba8066; stroke-width: 1.05"/>
     <use xlink:href="#mc5501d1bb5" x="781.053144" y="189.344835" style="fill: #ba8066; stroke: #ba8066; stroke-width: 1.05"/>
     <use xlink:href="#mc5501d1bb5" x="797.761904" y="193.815544" style="fill: #ba8066; stroke: #ba8066; stroke-width: 1.05"/>
     <use xlink:href="#mc5501d1bb5" x="814.470664" y="192.554654" style="fill: #ba8066; stroke: #ba8066; stroke-width: 1.05"/>
     <use xlink:href="#mc5501d1bb5" x="831.179425" y="193.348267" style="fill: #ba8066; stroke: #ba8066; stroke-width: 1.05"/>
     <use xlink:href="#mc5501d1bb5" x="847.888185" y="193.452393" style="fill: #ba8066; stroke: #ba8066; stroke-width: 1.05"/>
     <use xlink:href="#mc5501d1bb5" x="864.596945" y="210.144067" style="fill: #ba8066; stroke: #ba8066; stroke-width: 1.05"/>
     <use xlink:href="#mc5501d1bb5" x="881.305706" y="183.341501" style="fill: #ba8066; stroke: #ba8066; stroke-width: 1.05"/>
     <use xlink:href="#mc5501d1bb5" x="898.014466" y="166.071166" style="fill: #ba8066; stroke: #ba8066; stroke-width: 1.05"/>
    </g>
   </g>
   <g id="patch_8">
    <path d="M 870.932494 135.768632
Q 916.89789 140.615732 962.863286 145.462832
" style="fill: none; stroke: #337f89; stroke-width: 0.8; stroke-linecap: round"/>
   </g>
   <g id="text_25">
    <text style="font-size: 14px; font-family: 'Arial'; text-anchor: start; fill: #34434c" x="750.977375" y="132.852706" transform="rotate(-0 750.977375 132.852706)">Selected: batch 23</text>
   </g>
   <g id="PathCollection_6">
    <path d="M 964.849507 150.282054
C 966.072033 150.282054 967.244652 149.796339 968.109109 148.931883
C 968.973565 148.067426 969.45928 146.894807 969.45928 145.672282
C 969.45928 144.449756 968.973565 143.277137 968.109109 142.41268
C 967.244652 141.548224 966.072033 141.062509 964.849507 141.062509
C 963.626982 141.062509 962.454363 141.548224 961.589906 142.41268
C 960.72545 143.277137 960.239735 144.449756 960.239735 145.672282
C 960.239735 146.894807 960.72545 148.067426 961.589906 148.931883
C 962.454363 149.796339 963.626982 150.282054 964.849507 150.282054
L 964.849507 150.282054
z
" clip-path="url(#p192ab7aad3)" style="fill: none; stroke: #337f89; stroke-width: 1.3"/>
   </g>
  </g>
  <g id="axes_3">
   <g id="patch_9">
    <path d="M 80.8704 883.584
L 327.6288 883.584
L 327.6288 764.928
L 80.8704 764.928
z
" style="fill: #ffffff"/>
   </g>
   <g id="matplotlib.axis_5">
    <g id="xtick_12">
     <g id="line2d_30"/>
     <g id="text_26">
      <text style="font-size: 13.5px; font-family: 'Arial'; text-anchor: middle; fill: #697781" x="125.991936" y="900.247047" transform="rotate(-0 125.991936 900.247047)">Cold hold</text>
     </g>
    </g>
    <g id="xtick_13">
     <g id="line2d_31"/>
     <g id="text_27">
      <text style="font-size: 13.5px; font-family: 'Arial'; text-anchor: middle; fill: #697781" x="266.996736" y="900.247047" transform="rotate(-0 266.996736 900.247047)">Heat + recool</text>
     </g>
    </g>
   </g>
   <g id="matplotlib.axis_6">
    <g id="ytick_9">
     <g id="line2d_32">
      <path d="M 80.8704 883.584
L 327.6288 883.584
" clip-path="url(#p850b0f4621)" style="fill: none; stroke: #e5e9ec; stroke-width: 0.6; stroke-linecap: square"/>
     </g>
     <g id="line2d_33"/>
     <g id="text_28">
      <text style="font-size: 16px; font-family: 'Arial'; text-anchor: end; fill: #697781" x="73.8704" y="889.31025" transform="rotate(-0 73.8704 889.31025)">0</text>
     </g>
    </g>
    <g id="ytick_10">
     <g id="line2d_34">
      <path d="M 80.8704 834.144
L 327.6288 834.144
" clip-path="url(#p850b0f4621)" style="fill: none; stroke: #e5e9ec; stroke-width: 0.6; stroke-linecap: square"/>
     </g>
     <g id="line2d_35"/>
     <g id="text_29">
      <text style="font-size: 16px; font-family: 'Arial'; text-anchor: end; fill: #697781" x="73.8704" y="839.87025" transform="rotate(-0 73.8704 839.87025)">50</text>
     </g>
    </g>
    <g id="ytick_11">
     <g id="line2d_36">
      <path d="M 80.8704 784.704
L 327.6288 784.704
" clip-path="url(#p850b0f4621)" style="fill: none; stroke: #e5e9ec; stroke-width: 0.6; stroke-linecap: square"/>
     </g>
     <g id="line2d_37"/>
     <g id="text_30">
      <text style="font-size: 16px; font-family: 'Arial'; text-anchor: end; fill: #697781" x="73.8704" y="790.43025" transform="rotate(-0 73.8704 790.43025)">100</text>
     </g>
    </g>
    <g id="text_31">
     <text style="font-size: 15px; font-family: 'Arial'; text-anchor: middle; fill: #34434c" x="40.020869" y="824.256" transform="rotate(-90 40.020869 824.256)">Fines (%)</text>
    </g>
   </g>
   <g id="LineCollection_1">
    <path d="M 125.991936 878.64
L 125.991936 848.976
" clip-path="url(#p850b0f4621)" style="fill: none; stroke: #607d95; stroke-width: 1.1"/>
    <path d="M 266.996736 880.6176
L 266.996736 853.92
" clip-path="url(#p850b0f4621)" style="fill: none; stroke: #607d95; stroke-width: 1.1"/>
   </g>
   <g id="line2d_38">
    <defs>
     <path id="mff75b4b30d" d="M 4 0
L -4 -0
" style="stroke: #607d95"/>
    </defs>
    <g clip-path="url(#p850b0f4621)">
     <use xlink:href="#mff75b4b30d" x="125.991936" y="878.64" style="fill: #607d95; stroke: #607d95"/>
     <use xlink:href="#mff75b4b30d" x="266.996736" y="880.6176" style="fill: #607d95; stroke: #607d95"/>
    </g>
   </g>
   <g id="line2d_39">
    <g clip-path="url(#p850b0f4621)">
     <use xlink:href="#mff75b4b30d" x="125.991936" y="848.976" style="fill: #607d95; stroke: #607d95"/>
     <use xlink:href="#mff75b4b30d" x="266.996736" y="853.92" style="fill: #607d95; stroke: #607d95"/>
    </g>
   </g>
   <g id="line2d_40">
    <path d="M 125.991936 866.7744
L 266.996736 871.7184
" clip-path="url(#p850b0f4621)" style="fill: none; stroke: #607d95; stroke-width: 1.5; stroke-linecap: square"/>
    <defs>
     <path id="mcd886f6b8e" d="M 0 2.5
C 0.663008 2.5 1.29895 2.236584 1.767767 1.767767
C 2.236584 1.29895 2.5 0.663008 2.5 0
C 2.5 -0.663008 2.236584 -1.29895 1.767767 -1.767767
C 1.29895 -2.236584 0.663008 -2.5 0 -2.5
C -0.663008 -2.5 -1.29895 -2.236584 -1.767767 -1.767767
C -2.236584 -1.29895 -2.5 -0.663008 -2.5 0
C -2.5 0.663008 -2.236584 1.29895 -1.767767 1.767767
C -1.29895 2.236584 -0.663008 2.5 0 2.5
z
" style="stroke: #607d95"/>
    </defs>
    <g clip-path="url(#p850b0f4621)">
     <use xlink:href="#mcd886f6b8e" x="125.991936" y="866.7744" style="fill: #607d95; stroke: #607d95"/>
     <use xlink:href="#mcd886f6b8e" x="266.996736" y="871.7184" style="fill: #607d95; stroke: #607d95"/>
    </g>
   </g>
   <g id="patch_10">
    <path d="M 80.8704 883.584
L 80.8704 764.928
" style="fill: none; stroke: #adb8be; stroke-width: 0.7; stroke-linejoin: miter; stroke-linecap: square"/>
   </g>
   <g id="text_32">
    <text style="font-size: 15px; font-family: 'Arial'; text-anchor: start; fill: #607d95" x="135.862272" y="858.864" transform="rotate(-0 135.862272 858.864)">17%</text>
   </g>
   <g id="text_33">
    <text style="font-size: 15px; font-family: 'Arial'; text-anchor: start; fill: #607d95" x="276.867072" y="863.808" transform="rotate(-0 276.867072 863.808)">12%</text>
   </g>
   <g id="text_34">
    <text style="font-size: 16px; font-family: 'Arial'; text-anchor: start; fill: #607d95" x="80.8704" y="754.928" transform="rotate(-0 80.8704 754.928)">12-batch agent</text>
   </g>
  </g>
  <g id="axes_4">
   <g id="patch_11">
    <path d="M 412.6464 883.584
L 659.4048 883.584
L 659.4048 764.928
L 412.6464 764.928
z
" style="fill: #ffffff"/>
   </g>
   <g id="matplotlib.axis_7">
    <g id="xtick_14">
     <g id="line2d_41"/>
     <g id="text_35">
      <text style="font-size: 13.5px; font-family: 'Arial'; text-anchor: middle; fill: #697781" x="457.767936" y="900.247047" transform="rotate(-0 457.767936 900.247047)">Cold hold</text>
     </g>
    </g>
    <g id="xtick_15">
     <g id="line2d_42"/>
     <g id="text_36">
      <text style="font-size: 13.5px; font-family: 'Arial'; text-anchor: middle; fill: #697781" x="598.772736" y="900.247047" transform="rotate(-0 598.772736 900.247047)">Heat + recool</text>
     </g>
    </g>
   </g>
   <g id="matplotlib.axis_8">
    <g id="ytick_12">
     <g id="line2d_43">
      <path d="M 412.6464 883.584
L 659.4048 883.584
" clip-path="url(#pbb3a828049)" style="fill: none; stroke: #e5e9ec; stroke-width: 0.6; stroke-linecap: square"/>
     </g>
     <g id="line2d_44"/>
     <g id="text_37">
      <text style="font-size: 16px; font-family: 'Arial'; text-anchor: end; fill: #697781" x="405.6464" y="889.31025" transform="rotate(-0 405.6464 889.31025)">0</text>
     </g>
    </g>
    <g id="ytick_13">
     <g id="line2d_45">
      <path d="M 412.6464 834.144
L 659.4048 834.144
" clip-path="url(#pbb3a828049)" style="fill: none; stroke: #e5e9ec; stroke-width: 0.6; stroke-linecap: square"/>
     </g>
     <g id="line2d_46"/>
     <g id="text_38">
      <text style="font-size: 16px; font-family: 'Arial'; text-anchor: end; fill: #697781" x="405.6464" y="839.87025" transform="rotate(-0 405.6464 839.87025)">50</text>
     </g>
    </g>
    <g id="ytick_14">
     <g id="line2d_47">
      <path d="M 412.6464 784.704
L 659.4048 784.704
" clip-path="url(#pbb3a828049)" style="fill: none; stroke: #e5e9ec; stroke-width: 0.6; stroke-linecap: square"/>
     </g>
     <g id="line2d_48"/>
     <g id="text_39">
      <text style="font-size: 16px; font-family: 'Arial'; text-anchor: end; fill: #697781" x="405.6464" y="790.43025" transform="rotate(-0 405.6464 790.43025)">100</text>
     </g>
    </g>
   </g>
   <g id="LineCollection_2">
    <path d="M 457.767936 855.8976
L 457.767936 813.3792
" clip-path="url(#pbb3a828049)" style="fill: none; stroke: #337f89; stroke-width: 1.1"/>
    <path d="M 598.772736 867.7632
L 598.772736 825.2448
" clip-path="url(#pbb3a828049)" style="fill: none; stroke: #337f89; stroke-width: 1.1"/>
   </g>
   <g id="line2d_49">
    <defs>
     <path id="mbc9f761f3a" d="M 4 0
L -4 -0
" style="stroke: #337f89"/>
    </defs>
    <g clip-path="url(#pbb3a828049)">
     <use xlink:href="#mbc9f761f3a" x="457.767936" y="855.8976" style="fill: #337f89; stroke: #337f89"/>
     <use xlink:href="#mbc9f761f3a" x="598.772736" y="867.7632" style="fill: #337f89; stroke: #337f89"/>
    </g>
   </g>
   <g id="line2d_50">
    <g clip-path="url(#pbb3a828049)">
     <use xlink:href="#mbc9f761f3a" x="457.767936" y="813.3792" style="fill: #337f89; stroke: #337f89"/>
     <use xlink:href="#mbc9f761f3a" x="598.772736" y="825.2448" style="fill: #337f89; stroke: #337f89"/>
    </g>
   </g>
   <g id="line2d_51">
    <path d="M 457.767936 835.1328
L 598.772736 848.976
" clip-path="url(#pbb3a828049)" style="fill: none; stroke: #337f89; stroke-width: 1.5; stroke-linecap: square"/>
    <defs>
     <path id="mca7333c437" d="M 0 2.5
C 0.663008 2.5 1.29895 2.236584 1.767767 1.767767
C 2.236584 1.29895 2.5 0.663008 2.5 0
C 2.5 -0.663008 2.236584 -1.29895 1.767767 -1.767767
C 1.29895 -2.236584 0.663008 -2.5 0 -2.5
C -0.663008 -2.5 -1.29895 -2.236584 -1.767767 -1.767767
C -2.236584 -1.29895 -2.5 -0.663008 -2.5 0
C -2.5 0.663008 -2.236584 1.29895 -1.767767 1.767767
C -1.29895 2.236584 -0.663008 2.5 0 2.5
z
" style="stroke: #337f89"/>
    </defs>
    <g clip-path="url(#pbb3a828049)">
     <use xlink:href="#mca7333c437" x="457.767936" y="835.1328" style="fill: #337f89; stroke: #337f89"/>
     <use xlink:href="#mca7333c437" x="598.772736" y="848.976" style="fill: #337f89; stroke: #337f89"/>
    </g>
   </g>
   <g id="patch_12">
    <path d="M 412.6464 883.584
L 412.6464 764.928
" style="fill: none; stroke: #adb8be; stroke-width: 0.7; stroke-linejoin: miter; stroke-linecap: square"/>
   </g>
   <g id="text_40">
    <text style="font-size: 15px; font-family: 'Arial'; text-anchor: start; fill: #337f89" x="467.638272" y="827.2224" transform="rotate(-0 467.638272 827.2224)">49%</text>
   </g>
   <g id="text_41">
    <text style="font-size: 15px; font-family: 'Arial'; text-anchor: start; fill: #337f89" x="608.643072" y="841.0656" transform="rotate(-0 608.643072 841.0656)">35%</text>
   </g>
   <g id="text_42">
    <text style="font-size: 16px; font-family: 'Arial'; text-anchor: start; fill: #337f89" x="412.6464" y="754.928" transform="rotate(-0 412.6464 754.928)">24-batch agent</text>
   </g>
  </g>
  <g id="axes_5">
   <g id="patch_13">
    <path d="M 744.4224 883.584
L 991.1808 883.584
L 991.1808 764.928
L 744.4224 764.928
z
" style="fill: #f2f4f4"/>
   </g>
   <g id="matplotlib.axis_9">
    <g id="xtick_16">
     <g id="line2d_52"/>
     <g id="text_43">
      <text style="font-size: 13.5px; font-family: 'Arial'; text-anchor: middle; fill: #697781" x="789.543936" y="900.247047" transform="rotate(-0 789.543936 900.247047)">Cold hold</text>
     </g>
    </g>
    <g id="xtick_17">
     <g id="line2d_53"/>
     <g id="text_44">
      <text style="font-size: 13.5px; font-family: 'Arial'; text-anchor: middle; fill: #697781" x="930.548736" y="900.247047" transform="rotate(-0 930.548736 900.247047)">Heat + recool</text>
     </g>
    </g>
   </g>
   <g id="matplotlib.axis_10">
    <g id="ytick_15">
     <g id="line2d_54">
      <path d="M 744.4224 883.584
L 991.1808 883.584
" clip-path="url(#p0bda63ee3e)" style="fill: none; stroke: #e5e9ec; stroke-width: 0.6; stroke-linecap: square"/>
     </g>
     <g id="line2d_55"/>
     <g id="text_45">
      <text style="font-size: 16px; font-family: 'Arial'; text-anchor: end; fill: #697781" x="737.4224" y="889.31025" transform="rotate(-0 737.4224 889.31025)">0</text>
     </g>
    </g>
    <g id="ytick_16">
     <g id="line2d_56">
      <path d="M 744.4224 834.144
L 991.1808 834.144
" clip-path="url(#p0bda63ee3e)" style="fill: none; stroke: #e5e9ec; stroke-width: 0.6; stroke-linecap: square"/>
     </g>
     <g id="line2d_57"/>
     <g id="text_46">
      <text style="font-size: 16px; font-family: 'Arial'; text-anchor: end; fill: #697781" x="737.4224" y="839.87025" transform="rotate(-0 737.4224 839.87025)">50</text>
     </g>
    </g>
    <g id="ytick_17">
     <g id="line2d_58">
      <path d="M 744.4224 784.704
L 991.1808 784.704
" clip-path="url(#p0bda63ee3e)" style="fill: none; stroke: #e5e9ec; stroke-width: 0.6; stroke-linecap: square"/>
     </g>
     <g id="line2d_59"/>
     <g id="text_47">
      <text style="font-size: 16px; font-family: 'Arial'; text-anchor: end; fill: #697781" x="737.4224" y="790.43025" transform="rotate(-0 737.4224 790.43025)">100</text>
     </g>
    </g>
   </g>
   <g id="line2d_60">
    <path d="M 789.543936 848.970283
L 930.548736 784.704
" clip-path="url(#p0bda63ee3e)" style="fill: none; stroke: #697781; stroke-width: 1.5; stroke-linecap: square"/>
    <defs>
     <path id="m18c1776ab4" d="M -2.5 2.5
L 2.5 2.5
L 2.5 -2.5
L -2.5 -2.5
z
" style="stroke: #697781; stroke-linejoin: miter"/>
    </defs>
    <g clip-path="url(#p0bda63ee3e)">
     <use xlink:href="#m18c1776ab4" x="789.543936" y="848.970283" style="fill: #697781; stroke: #697781; stroke-linejoin: miter"/>
     <use xlink:href="#m18c1776ab4" x="930.548736" y="784.704" style="fill: #697781; stroke: #697781; stroke-linejoin: miter"/>
    </g>
   </g>
   <g id="patch_14">
    <path d="M 744.4224 883.584
L 744.4224 764.928
" style="fill: none; stroke: #adb8be; stroke-width: 0.7; stroke-linejoin: miter; stroke-linecap: square"/>
   </g>
   <g id="text_48">
    <text style="font-size: 15px; font-family: 'Arial'; text-anchor: start; fill: #697781" x="799.414272" y="833.149483" transform="rotate(-0 799.414272 833.149483)">35%</text>
   </g>
   <g id="text_49">
    <text style="font-size: 15px; font-family: 'Arial'; text-anchor: start; fill: #697781" x="940.419072" y="776.7936" transform="rotate(-0 940.419072 776.7936)">100%</text>
   </g>
   <g id="text_50">
    <text style="font-size: 16px; font-family: 'Arial'; text-anchor: start; fill: #697781" x="744.4224" y="754.928" transform="rotate(-0 744.4224 754.928)">Withheld reference</text>
   </g>
  </g>
  <g id="text_51">
   <text style="font-weight: 700; font-size: 21.5px; font-family: 'Arial'; text-anchor: start; fill: #34434c" x="25.92" y="28.8" transform="rotate(-0 25.92 28.8)">a</text>
  </g>
  <g id="text_52">
   <text style="font-size: 18px; font-family: 'Arial'; text-anchor: start; fill: #34434c" x="53.9136" y="28.8" transform="rotate(-0 53.9136 28.8)">Two independent research trajectories in the same world</text>
  </g>
  <g id="text_53">
   <text style="font-size: 17px; font-family: 'Arial'; text-anchor: start; fill: #607d95" x="80.8704" y="99.072" transform="rotate(-0 80.8704 99.072)">12-batch session</text>
  </g>
  <g id="text_54">
   <text style="font-size: 15px; font-family: 'Arial'; text-anchor: start; fill: #697781" x="80.8704" y="349.056" transform="rotate(-0 80.8704 349.056)">10/12 feasible; first feasible at batch 1</text>
  </g>
  <g id="text_55">
   <text style="font-size: 17px; font-family: 'Arial'; text-anchor: start; fill: #337f89" x="588.9024" y="99.072" transform="rotate(-0 588.9024 99.072)">24-batch session</text>
  </g>
  <g id="text_56">
   <text style="font-size: 15px; font-family: 'Arial'; text-anchor: start; fill: #697781" x="588.9024" y="349.056" transform="rotate(-0 588.9024 349.056)">5/24 feasible; first feasible at batch 20</text>
  </g>
  <g id="text_57">
   <text style="font-size: 15px; font-family: 'Arial'; text-anchor: start; fill: #607d95" x="80.8704" y="377.856" transform="rotate(-0 80.8704 377.856)">Evaluator retest: recovery 50.4%; fines 46.2%</text>
  </g>
  <g id="text_58">
   <text style="font-size: 15px; font-family: 'Arial'; text-anchor: start; fill: #337f89" x="588.9024" y="377.856" transform="rotate(-0 588.9024 377.856)">Evaluator retest: recovery 58.1%; fines 19.3%</text>
  </g>
  <g id="text_59">
   <text style="font-weight: 700; font-size: 21.5px; font-family: 'Arial'; text-anchor: start; fill: #34434c" x="25.92" y="426.24" transform="rotate(-0 25.92 426.24)">b</text>
  </g>
  <g id="text_60">
   <text style="font-size: 18px; font-family: 'Arial'; text-anchor: start; fill: #34434c" x="53.9136" y="426.24" transform="rotate(-0 53.9136 426.24)">Agent’s mechanistic interpretation (K1, after research)</text>
  </g>
  <g id="text_61">
   <text style="font-size: 16px; font-family: 'Arial'; text-anchor: start; fill: #607d95" x="53.9136" y="461.952" transform="rotate(-0 53.9136 461.952)">Deeper cooling: 270 → 250 K (batches 8–10)</text>
  </g>
  <g id="text_62">
   <text style="font-size: 15.5px; font-family: 'Arial'; text-anchor: start; fill: #697781" x="53.9136" y="488.448" transform="rotate(-0 53.9136 488.448)">Recovery 49.2 → 51.2%; fines 39.5 → 45.7%</text>
  </g>
  <g id="text_63">
   <text style="font-size: 17px; font-family: 'Arial'; fill: #34434c" transform="translate(53.9136 538.632281)">Deeper cooling raises recovery but promotes</text>
   <text style="font-size: 17px; font-family: 'Arial'; fill: #34434c" transform="translate(53.9136 560.15468)">nucleation and narrows the fines margin.</text>
  </g>
  <g id="text_64">
   <text style="font-size: 16px; font-family: 'Arial'; fill: #697781" transform="translate(53.9136 604.78)">Batch 12 has better particle quality; its</text>
   <text style="font-size: 16px; font-family: 'Arial'; fill: #697781" transform="translate(53.9136 624.2475)">recovery gap to batch 10 remains unresolved.</text>
  </g>
  <g id="text_65">
   <text style="font-size: 16px; font-family: 'Arial'; text-anchor: start; fill: #337f89" x="572.3136" y="461.952" transform="rotate(-0 572.3136 461.952)">Hotter heating + staged cooling (batches 19–20)</text>
  </g>
  <g id="text_66">
   <text style="font-size: 15.5px; font-family: 'Arial'; text-anchor: start; fill: #697781" x="572.3136" y="488.448" transform="rotate(-0 572.3136 488.448)">Recovery 49.0 → 52.9%; fines 52.8 → 21.5%</text>
  </g>
  <g id="text_67">
   <text style="font-size: 17px; font-family: 'Arial'; fill: #34434c" transform="translate(572.3136 538.839469)">Slower cooling alone was insufficient;</text>
   <text style="font-size: 17px; font-family: 'Arial'; fill: #34434c" transform="translate(572.3136 560.061445)">upstream chemistry and cooling must be coupled.</text>
  </g>
  <g id="text_68">
   <text style="font-size: 16px; font-family: 'Arial'; fill: #697781" transform="translate(572.3136 604.9275)">Seed conditioning was not directly measured;</text>
   <text style="font-size: 16px; font-family: 'Arial'; fill: #697781" transform="translate(572.3136 624.395)">batches 22–24 suggest a recovery plateau.</text>
  </g>
  <g id="text_69">
   <text style="font-weight: 700; font-size: 21.5px; font-family: 'Arial'; text-anchor: start; fill: #34434c" x="25.92" y="658.944" transform="rotate(-0 25.92 658.944)">c</text>
  </g>
  <g id="text_70">
   <text style="font-size: 18px; font-family: 'Arial'; text-anchor: start; fill: #34434c" x="53.9136" y="658.944" transform="rotate(-0 53.9136 658.944)">Using a mechanistic explanation to predict a new intervention (Q)</text>
  </g>
  <g id="text_71">
   <text style="font-size: 15.5px; font-family: 'Arial'; text-anchor: start; fill: #34434c" x="53.9136" y="688.896" transform="rotate(-0 53.9136 688.896)">Test: replace a 2-h cold hold with heating toward 315 K for 1 h and recooling for 1 h.</text>
  </g>
  <g id="text_72">
   <text style="font-size: 15.5px; font-family: 'Arial'; text-anchor: start; fill: #697781" x="53.9136" y="716.544" transform="rotate(-0 53.9136 716.544)">Agent rationale: preferential dissolution of fines. Error bars: original 80% prediction intervals.</text>
  </g>
  <g id="text_73">
   <text style="font-weight: 700; font-size: 21.5px; font-family: 'Arial'; text-anchor: start; fill: #34434c" x="25.92" y="949.248" transform="rotate(-0 25.92 949.248)">d</text>
  </g>
  <g id="text_74">
   <text style="font-size: 18px; font-family: 'Arial'; text-anchor: start; fill: #34434c" x="53.9136" y="949.248" transform="rotate(-0 53.9136 949.248)">Agent’s retrospective critique (K2, without reference feedback)</text>
  </g>
  <g id="text_75">
   <text style="font-size: 17px; font-family: 'Arial'; fill: #34434c" transform="translate(53.9136 998.280281)">Preferential fines dissolution was untested;</text>
   <text style="font-size: 17px; font-family: 'Arial'; fill: #34434c" transform="translate(53.9136 1018.694625)">heating could erase the crystal population.</text>
  </g>
  <g id="text_76">
   <text style="font-size: 15px; font-family: 'Arial'; text-anchor: start; fill: #607d95" x="53.9136" y="1057.536" transform="rotate(-0 53.9136 1057.536)">Proposed next experiment · not executed</text>
  </g>
  <g id="text_77">
   <text style="font-size: 16.5px; font-family: 'Arial'; fill: #34434c" transform="translate(53.9136 1095.842391)">Repeat the selected recipe, adding a quench</text>
   <text style="font-size: 16.5px; font-family: 'Arial'; fill: #34434c" transform="translate(53.9136 1116.131203)">before seeding.</text>
  </g>
  <g id="text_78">
   <text style="font-size: 17px; font-family: 'Arial'; fill: #34434c" transform="translate(572.3136 998.280281)">Batch 8’s null result was underused; even</text>
   <text style="font-size: 17px; font-family: 'Arial'; fill: #34434c" transform="translate(572.3136 1018.984688)">the sign of the reheating forecast is uncertain.</text>
  </g>
  <g id="text_79">
   <text style="font-size: 15px; font-family: 'Arial'; text-anchor: start; fill: #337f89" x="572.3136" y="1057.536" transform="rotate(-0 572.3136 1057.536)">Proposed next experiment · not executed</text>
  </g>
  <g id="text_80">
   <text style="font-size: 16.5px; font-family: 'Arial'; fill: #34434c" transform="translate(572.3136 1095.842391)">Keep the upstream recipe; replace staged</text>
   <text style="font-size: 16.5px; font-family: 'Arial'; fill: #34434c" transform="translate(572.3136 1115.91825)">cooling with direct cooling to 250 K.</text>
  </g>
  <g id="legend_1">
   <g id="line2d_61">
    <defs>
     <path id="m6113efb5dd" d="M 0 3
C 0.795609 3 1.55874 2.683901 2.12132 2.12132
C 2.683901 1.55874 3 0.795609 3 0
C 3 -0.795609 2.683901 -1.55874 2.12132 -2.12132
C 1.55874 -2.683901 0.795609 -3 0 -3
C -0.795609 -3 -1.55874 -2.683901 -2.12132 -2.12132
C -2.683901 -1.55874 -3 -0.795609 -3 0
C -3 0.795609 -2.683901 1.55874 -2.12132 2.12132
C -1.55874 2.683901 -0.795609 3 0 3
z
" style="stroke: #607d95"/>
    </defs>
    <g>
     <use xlink:href="#m6113efb5dd" x="77.2296" y="60.843938" style="fill: #607d95; stroke: #607d95"/>
    </g>
   </g>
   <g id="text_81">
    <text style="font-size: 15px; font-family: 'Arial'; text-anchor: start; fill: #34434c" x="104.2296" y="66.093938" transform="rotate(-0 104.2296 66.093938)">Quality-feasible</text>
   </g>
   <g id="line2d_62">
    <defs>
     <path id="mfa25adae5e" d="M -3 3
L 3 -3
M -3 -3
L 3 3
" style="stroke: #ba8066"/>
    </defs>
    <g>
     <use xlink:href="#mfa25adae5e" x="255.605381" y="60.843938" style="fill: #ba8066; stroke: #ba8066"/>
    </g>
   </g>
   <g id="text_82">
    <text style="font-size: 15px; font-family: 'Arial'; text-anchor: start; fill: #34434c" x="282.605381" y="66.093938" transform="rotate(-0 282.605381 66.093938)">Quality-infeasible</text>
   </g>
   <g id="line2d_63">
    <path d="M 430.655381 60.843938
L 445.655381 60.843938
L 460.655381 60.843938
" style="fill: none; stroke: #607d95; stroke-width: 1.5; stroke-linecap: square"/>
   </g>
   <g id="text_83">
    <text style="font-size: 15px; font-family: 'Arial'; text-anchor: start; fill: #34434c" x="472.655381" y="66.093938" transform="rotate(-0 472.655381 66.093938)">Best feasible recovery</text>
   </g>
  </g>
 </g>
 <defs>
  <clipPath id="p04737e5c73">
   <rect x="80.8704" y="117.504" width="404.352" height="173.952"/>
  </clipPath>
  <clipPath id="p192ab7aad3">
   <rect x="588.9024" y="117.504" width="404.352" height="173.952"/>
  </clipPath>
  <clipPath id="p850b0f4621">
   <rect x="80.8704" y="764.928" width="246.7584" height="118.656"/>
  </clipPath>
  <clipPath id="pbb3a828049">
   <rect x="412.6464" y="764.928" width="246.7584" height="118.656"/>
  </clipPath>
  <clipPath id="p0bda63ee3e">
   <rect x="744.4224" y="764.928" width="246.7584" height="118.656"/>
  </clipPath>
 </defs>
</svg>
